<?xml version="1.0" encoding="UTF-8"?>
<svg version="1.1" xmlns="http://www.w3.org/2000/svg" width="500" height="500">
<path d="M0 0 C7.959834 6.9680336 13.16373779 16.62622801 14.4453125 27.140625 C14.50257943 31.95511222 14.2938344 36.74014981 14.04735661 41.54754019 C13.82698501 45.89427889 13.65293925 50.24301955 13.47138977 54.59152222 C13.43155413 55.5225421 13.39171849 56.45356198 13.3506757 57.41279459 C12.50235209 77.52011516 12.0887098 97.64397882 11.7578125 117.765625 C11.73930363 118.87976839 11.72079475 119.99391178 11.70172501 121.14181709 C10.59289085 191.22060331 17.75179674 252.94033905 41.9453125 318.890625 C42.26061306 319.75211183 42.57591363 320.61359865 42.90076876 321.50119114 C49.84010726 340.42769365 57.11057796 359.21062502 64.96851063 377.77565956 C65.41440383 378.8295204 65.86029703 379.88338123 66.31970215 380.96917725 C66.90263157 382.33278193 66.90263157 382.33278193 67.49733734 383.72393417 C70.26558626 390.781083 70.29762327 397.35460277 67.3515625 404.32421875 C64.53988762 409.9596878 60.91293445 412.40681402 55.4453125 415.140625 C51.36076523 416.39031883 47.42195895 416.1589927 43.19677734 416.00276184 C41.44637399 415.94830641 39.69597058 415.89385265 37.94556713 415.83940029 C36.53913513 415.79250586 36.53913513 415.79250586 35.10429037 415.74466407 C29.9376164 415.57473576 24.77025755 415.42914512 19.6028595 415.28317261 C18.49466852 415.25173446 17.38647754 415.22029631 16.24470502 415.18790549 C-7.35027855 414.53265181 -30.95228615 414.19905869 -54.5546875 413.953125 C-55.85160884 413.9393439 -57.14853019 413.92556279 -58.48475218 413.91136408 C-126.96103921 413.21844785 -191.35530464 414.24813783 -255.8671875 439.078125 C-256.88344585 439.46892266 -256.88344585 439.46892266 -257.92023468 439.86761522 C-269.58117146 444.36888804 -281.19243315 449.01044415 -292.55207825 454.23171997 C-306.51787007 460.64796285 -319.07956636 465.68094472 -334.5546875 461.140625 C-335.79798828 460.78677734 -335.79798828 460.78677734 -337.06640625 460.42578125 C-348.88484913 456.39971829 -356.11229473 448.33444485 -361.99609375 437.765625 C-364.95780396 430.87723634 -365.85602052 424.15506378 -365.75241089 416.70780945 C-365.7497365 415.90880952 -365.74706211 415.1098096 -365.74430668 414.28659755 C-365.73329835 411.63452662 -365.70808558 408.98278365 -365.68310547 406.33081055 C-365.67274619 404.41748071 -365.66345163 402.50414486 -365.65513611 400.59080505 C-365.63617691 396.47723576 -365.61203566 392.36374028 -365.58456039 388.25021935 C-365.5432743 381.70765504 -365.52823247 375.16519214 -365.51931763 368.62251282 C-365.51770217 367.51346909 -365.51608671 366.40442536 -365.5144223 365.26177424 C-365.51118478 362.99359331 -365.50801508 360.72541228 -365.50491166 358.45723116 C-365.4832091 343.24159147 -365.44595531 328.02653717 -365.33203125 312.8112793 C-365.25524887 302.53012657 -365.22263148 292.24980866 -365.23793328 281.96836883 C-365.24432458 276.54844524 -365.23031941 271.13054155 -365.16186142 265.71100426 C-364.84575813 239.44897025 -367.20807932 217.65531003 -376.96829987 193.20556068 C-379.48911961 186.84334032 -381.54824637 180.3318321 -383.66479492 173.82617188 C-384.48765532 171.35383094 -385.3126249 168.882191 -386.13969421 166.41125488 C-389.26943656 157.0343719 -392.39761317 147.65696667 -395.52566051 138.27951813 C-397.89008648 131.19144932 -400.25510656 124.10357962 -402.62133789 117.01611328 C-404.72144456 110.72574965 -406.82050092 104.4350367 -408.91829187 98.14390039 C-410.0189891 94.84310578 -411.12020468 91.54248624 -412.22270775 88.24229431 C-413.43940659 84.60022284 -414.65376801 80.9573745 -415.86791992 77.31445312 C-416.22885239 76.23525101 -416.58978485 75.15604889 -416.96165466 74.04414368 C-417.29066772 73.05572983 -417.61968079 72.06731598 -417.95866394 71.0489502 C-418.38742466 69.76405071 -418.38742466 69.76405071 -418.82484722 68.45319366 C-421.36137989 60.41594751 -421.30144423 53.73230676 -417.5546875 46.140625 C-414.35350008 40.63458265 -409.51854628 37.96782906 -403.5546875 36.140625 C-397.87448225 35.47341148 -392.12098376 35.82644034 -386.42105174 36.05976403 C-383.3994152 36.18325481 -380.37816616 36.27473478 -377.35518837 36.3588171 C-372.93897028 36.48373276 -368.52335657 36.62070286 -364.10774994 36.76559067 C-352.04897347 37.14990018 -339.98607037 37.36227515 -327.92333984 37.58032227 C-326.66048503 37.60324781 -325.39763021 37.62617336 -324.09650707 37.64979362 C-207.41054138 40.39017088 -207.41054138 40.39017088 -94.9296875 13.203125 C-93.90791019 12.81208092 -93.90791019 12.81208092 -92.86549091 12.41313696 C-78.29213293 6.81856475 -63.82340011 0.95078626 -49.75474739 -5.82931614 C-32.45568606 -13.92091427 -15.04182413 -11.57063394 0 0 Z " fill="#526E48" transform="translate(422.5546875,20.859375)"/>
<path d="M0 0 C2.23789946 0.00141162 4.47580123 0.00061627 6.71369934 -0.00221252 C12.76890365 -0.00364361 18.82360996 0.02569707 24.87869883 0.06065726 C31.21409976 0.09197166 37.54951286 0.09485553 43.88497925 0.1007843 C54.51212156 0.11454545 65.13906782 0.14574929 75.76611328 0.19042969 C86.70783585 0.23638503 97.64950889 0.27174758 108.59130859 0.29296875 C109.60443974 0.29493918 109.60443974 0.29493918 110.63803817 0.29694941 C114.02671569 0.303475 117.41539356 0.30979344 120.80407166 0.31600893 C148.87845945 0.3677703 176.95264611 0.45614651 205.02685547 0.56762695 C202.12197083 3.47251159 198.52567026 4.19193486 194.69091797 5.40356445 C193.41069008 5.81635651 193.41069008 5.81635651 192.104599 6.23748779 C190.25694652 6.83260006 188.40841227 7.42498001 186.55911255 8.01495361 C181.62908392 9.58807082 176.70551846 11.1812249 171.78076172 12.77075195 C170.78255905 13.09226227 169.78435638 13.41377258 168.75590515 13.74502563 C159.68107479 16.67030768 150.63084315 19.66608685 141.58935547 22.69262695 C140.1289898 23.18107746 138.66862196 23.66952147 137.20825195 24.15795898 C135.02393858 24.88868663 132.83968407 25.61958821 130.65559387 26.35098267 C124.51757472 28.40586441 118.37498542 30.44684464 112.23153687 32.48542786 C106.18307616 34.49336316 100.13927625 36.51498665 94.09732056 38.54240417 C89.80074886 39.98182739 85.49538363 41.39060592 81.18310547 42.7824707 C56.35825764 50.90306111 37.84726808 63.7379744 25.21435547 87.31762695 C18.82416616 101.05899965 17.42503719 114.25724758 17.41748047 129.19262695 C17.40245423 130.91855383 17.38571801 132.64446656 17.36737061 134.37036133 C17.32418258 138.85494749 17.30380751 143.33933996 17.28863525 147.82409668 C17.26888648 152.42361685 17.22693824 157.02293302 17.18701172 161.62231445 C17.11223745 170.60402158 17.061629 179.58568193 17.02685547 188.56762695 C16.36685547 188.56762695 15.70685547 188.56762695 15.02685547 188.56762695 C4.05890151 156.68687761 -6.64222931 124.71812921 -17.29487789 92.7309953 C-19.08956126 87.34255419 -20.88651855 81.95487336 -22.68396789 76.56735438 C-24.44246729 71.29638813 -26.19980255 66.02503482 -27.95615548 60.75335294 C-28.99438126 57.63712675 -30.03311812 54.52107282 -31.07268715 51.40529442 C-32.21714371 47.97445305 -33.35968782 44.54298079 -34.50170898 41.11132812 C-34.84079788 40.09608566 -35.17988678 39.0808432 -35.5292511 38.03483582 C-35.83854553 37.10413269 -36.14783997 36.17342957 -36.46650696 35.21452332 C-36.73500112 34.40866382 -37.00349527 33.60280432 -37.28012562 32.77252483 C-39.79407601 24.77418051 -39.69716292 18.11323626 -35.97314453 10.56762695 C-28.54555233 -2.20783164 -12.67163289 -0.11187259 0 0 Z " fill="#9DDE9A" transform="translate(40.97314453125,56.432373046875)"/>
<path d="M0 0 C2 1 2 1 3.05540562 3.54818439 C3.62589083 5.26460526 3.62589083 5.26460526 4.207901 7.01570129 C4.42124901 7.65076762 4.63459701 8.28583395 4.85441011 8.94014472 C5.57164699 11.08122909 6.27805787 13.22573243 6.98461914 15.37036133 C7.4949604 16.90115854 8.00595714 18.43173735 8.51756287 19.96211243 C9.90855814 24.1293735 11.29020272 28.299682 12.67016912 32.47060609 C14.11392381 36.82934991 15.56590524 41.18535147 17.01695251 45.54167175 C19.45382778 52.86151304 21.88518968 60.18316607 24.31274414 67.50610352 C27.73660513 77.83443723 31.17077159 88.15932262 34.60681736 98.48360789 C36.98469466 105.62969891 39.3601054 112.77661011 41.7350471 119.92367721 C42.31134932 121.65794638 42.88771938 123.39219302 43.46415639 125.1264174 C45.10816136 130.0727432 46.75062551 135.01957514 48.39060402 139.96723747 C48.887958 141.46701753 49.38580872 142.96663296 49.88418961 144.46607208 C50.56388146 146.51137155 51.24172951 148.55727281 51.91908264 150.60334778 C52.29902909 151.74875943 52.67897554 152.89417109 53.07043552 154.07429218 C55.69212127 162.32577626 55.91077625 169.1615907 52 177 C48.85921331 181.93552194 44.65386018 184.8847591 39.02870297 186.60168451 C35.42405957 187.3094201 31.75129329 187.13276637 28.09100342 187.12025452 C27.18103709 187.12110894 26.27107077 187.12196337 25.33352971 187.12284368 C22.27799731 187.12449355 19.22251955 187.11898513 16.16699219 187.11352539 C13.97923789 187.11324339 11.79148349 187.11340151 9.60372925 187.1139679 C3.65786649 187.11425535 -2.28797618 187.1083669 -8.23383427 187.10139394 C-14.44517478 187.09515187 -20.65651572 187.09455592 -26.86785889 187.09336853 C-37.29537294 187.0906114 -47.72288011 187.0843609 -58.15039062 187.07543945 C-68.89062462 187.06626001 -79.63085662 187.05918178 -90.37109375 187.05493164 C-91.36418694 187.05453756 -91.36418694 187.05453756 -92.37734261 187.05413551 C-95.69872388 187.05283047 -99.02010516 187.05156902 -102.34148645 187.05032361 C-129.89432945 187.03986492 -157.4471642 187.02227033 -185 187 C-185.33 186.34 -185.66 185.68 -186 185 C-185.42145264 184.80889648 -184.84290527 184.61779297 -184.24682617 184.42089844 C-171.56960162 180.27175969 -171.56960162 180.27175969 -159 175.8125 C-154.12245881 173.99885731 -149.16802127 172.50355359 -144.1875 171 C-141.25416326 170.07973749 -138.38076213 169.07191149 -135.5 168 C-130.45360031 166.12226988 -125.34085048 164.55572845 -120.1875 163 C-117.25416326 162.07973749 -114.38076213 161.07191149 -111.5 160 C-106.45360031 158.12226988 -101.34085048 156.55572845 -96.1875 155 C-92.33334759 153.79085415 -88.56598912 152.39668273 -84.78125 150.98828125 C-81.8772409 149.95637914 -78.95442575 149.06412885 -76 148.1875 C-57.75968394 142.65220695 -41.77152834 136.22538333 -27 124 C-26.3296875 123.44699219 -25.659375 122.89398438 -24.96875 122.32421875 C-9.91690605 108.58586118 -1.85858588 86.90677593 -0.69792175 66.92044067 C-0.52987783 62.61581295 -0.50605893 58.31130513 -0.48828125 54.00390625 C-0.47138172 52.43349353 -0.45322469 50.8630939 -0.43388367 49.29270935 C-0.38694859 45.21422422 -0.35677775 41.1357921 -0.33044434 37.05712891 C-0.30034902 32.87326579 -0.25392061 28.68958475 -0.20898438 24.50585938 C-0.12359656 16.33733028 -0.05596933 8.16878347 0 0 Z " fill="#9EDE9B" transform="translate(437,250)"/>
<path d="M0 0 C11.87794143 2.977021 23.81301877 3.74238826 36.01318359 4.28857422 C41.96806937 18.6703562 39.86943295 35.97190782 34.265625 50.18457031 C26.85456066 67.56804289 14.39154732 80.10180866 -2.92431641 87.53857422 C-18.42528199 93.29744688 -36.36767536 93.32820166 -51.55322266 86.74169922 C-58.22132481 83.61790361 -64.33687477 80.03706449 -69.98681641 75.28857422 C-70.61201172 74.80646484 -71.23720703 74.32435547 -71.88134766 73.82763672 C-76.05839558 70.50358595 -78.57964201 67.0539967 -80.98681641 62.28857422 C-81.38642578 61.60923828 -81.78603516 60.92990234 -82.19775391 60.22998047 C-85.57612247 54.48675391 -87.93874531 48.62154982 -89.98681641 42.28857422 C-90.21498047 41.59892578 -90.44314453 40.90927734 -90.67822266 40.19873047 C-92.44342955 34.16246355 -93.84784868 26.91889774 -90.87744141 21.12451172 C-79.34482836 6.79438362 -59.8607373 -1.14865541 -42.11181641 -3.34814453 C-27.36693864 -4.75224583 -14.349504 -3.70805557 0 0 Z " fill="#F9C3AC" transform="translate(335.98681640625,154.71142578125)"/>
<path d="M0 0 C1.39618426 0.00104091 2.79237146 -0.00000879 4.18855286 -0.00302124 C7.09254612 -0.00284332 9.99541123 0.01770082 12.89916992 0.05419922 C16.59772417 0.09970042 20.29464577 0.10062371 23.99340343 0.08716393 C26.86849674 0.08044417 29.74322598 0.09381674 32.61824989 0.11342239 C34.63708616 0.12471793 36.65598454 0.12227306 38.67485046 0.11947632 C47.93087623 0.26156089 55.40627981 1.71301357 62.45703125 8.0390625 C63.37935547 8.83763672 63.37935547 8.83763672 64.3203125 9.65234375 C70.23125182 16.37334756 70.70509495 21.64244294 70.53515625 30.34765625 C70.52949646 31.44755386 70.52383667 32.54745148 70.51800537 33.68067932 C70.49570868 37.17559289 70.44552274 40.66946153 70.39453125 44.1640625 C70.37445767 46.54100076 70.35620841 48.91795518 70.33984375 51.29492188 C70.29586587 57.10582212 70.22902034 62.91611763 70.14453125 68.7265625 C70.80453125 68.7265625 71.46453125 68.7265625 72.14453125 68.7265625 C73.24984532 70.76760821 74.35373032 72.80942786 75.45703125 74.8515625 C76.07191406 75.98851562 76.68679687 77.12546875 77.3203125 78.296875 C82.14453125 87.36681946 82.14453125 87.36681946 82.14453125 89.7265625 C69.37476265 89.81934403 56.60507457 89.89036917 43.83503723 89.93381119 C37.90504021 89.9546638 31.97527423 89.98293948 26.04541016 90.02832031 C20.32010637 90.07186023 14.59502448 90.0957171 8.86956787 90.10607147 C6.68793242 90.11344816 4.50630877 90.12785311 2.32476807 90.14948273 C-0.73687755 90.1786244 -3.79761246 90.18251393 -6.859375 90.18066406 C-7.75633591 90.19504517 -8.65329681 90.20942627 -9.57743835 90.22424316 C-16.69129133 90.17789636 -21.7966148 88.25836754 -27.28125 83.71875 C-28.21517578 82.67074219 -28.21517578 82.67074219 -29.16796875 81.6015625 C-29.80347656 80.91835937 -30.43898438 80.23515625 -31.09375 79.53125 C-35.53185897 72.4657018 -36.31634305 64.64930859 -36.2890625 56.4765625 C-36.29430435 55.53780273 -36.2995462 54.59904297 -36.3049469 53.63183594 C-36.31132334 51.66211936 -36.31008747 49.69236448 -36.30151367 47.72265625 C-36.29298904 44.73367735 -36.32185054 41.74660415 -36.35351562 38.7578125 C-36.3551278 36.83072973 -36.35454979 34.90364363 -36.3515625 32.9765625 C-36.36279648 32.09709961 -36.37403046 31.21763672 -36.38560486 30.31152344 C-36.2985185 22.44037478 -34.09579046 13.99953905 -28.55915833 8.09384155 C-19.78591554 1.05296318 -10.92057403 -0.15357969 0 0 Z " fill="#5AB68C" transform="translate(144.85546875,131.2734375)"/>
<path d="M0 0 C1.25182571 -0.0127597 2.50365143 -0.02551941 3.79341125 -0.03866577 C5.14767297 -0.04172407 6.50193679 -0.04395148 7.85620117 -0.04541016 C9.26096224 -0.05184649 10.665722 -0.05857546 12.07048035 -0.06558228 C15.0099091 -0.07752717 17.94922058 -0.08126604 20.88867188 -0.08007812 C24.63431797 -0.07987521 28.37920299 -0.10715999 32.12466908 -0.14162254 C35.02539953 -0.16398623 37.92594964 -0.16791278 40.82675743 -0.16685867 C42.20651557 -0.16920108 43.58627972 -0.17794705 44.96595192 -0.19352341 C55.8000309 -0.3043811 63.92528372 1.13742461 72.08276367 8.57568359 C76.31375496 13.40011263 78.67908311 19.50540626 78.77954102 25.87866211 C78.79560394 26.80715469 78.81166687 27.73564728 78.82821655 28.692276 C78.87292139 32.95328911 78.91376602 37.21414842 78.93676758 41.4753418 C78.95327753 43.71470569 78.98050128 45.95401798 79.01879883 48.19311523 C79.07392915 51.43549723 79.09550118 54.67664421 79.11010742 57.91943359 C79.13277679 58.90835098 79.15544617 59.89726837 79.17880249 60.91615295 C79.15362806 69.31244689 76.60468152 75.6199727 71.27416992 82.10302734 C64.33351874 87.75239459 59.54052538 90.03749422 50.4987793 89.8581543 C49.03399139 89.8592495 49.03399139 89.8592495 47.53961182 89.86036682 C44.33596796 89.85690424 41.13380742 89.81810511 37.93041992 89.77880859 C35.69983718 89.76947577 33.46924414 89.76236188 31.23864746 89.75737 C25.38585803 89.73833742 19.53369527 89.68926812 13.68115234 89.6338501 C7.70182775 89.58257728 1.72240128 89.55983877 -4.25708008 89.53466797 C-15.97610445 89.48114636 -27.69466502 89.39587837 -39.41333008 89.29052734 C-38.02441701 85.59865364 -36.29800764 82.64205085 -34.07743835 79.38087463 C-26.81585291 68.1996168 -27.29614077 57.30383139 -27.60083008 44.35302734 C-27.64751576 41.20041316 -27.68076398 38.04880389 -27.69172668 34.89585876 C-27.70114356 32.95222602 -27.73180277 31.00852824 -27.78813171 29.06568909 C-27.88456582 19.88123826 -24.80743128 12.83686905 -18.41333008 6.29052734 C-12.57999551 1.82244129 -7.32057941 0.05089829 0 0 Z " fill="#F0C32D" transform="translate(296.413330078125,263.70947265625)"/>
<path d="M0 0 C3.25222629 1.41432357 5.27152932 3.10945162 7.6875 5.6875 C23.64938336 22.03294063 43.66057901 32.73105684 66 37 C67.01181456 55.49372168 61.40646996 71.44705243 49.28515625 85.53125 C37.79528664 97.94423734 23.48625589 105.60208317 6.4375 106.2734375 C-5.66744016 106.54224819 -16.029686 106.6572697 -27 101 C-28.33998047 100.33097656 -28.33998047 100.33097656 -29.70703125 99.6484375 C-39.62151969 94.19623034 -47.59678376 86.2508382 -54 77 C-54.53496094 76.24203125 -55.06992188 75.4840625 -55.62109375 74.703125 C-61.78892418 65.28987757 -65.19821139 53.45154554 -65.0625 42.1875 C-65.05347656 41.21167969 -65.04445313 40.23585938 -65.03515625 39.23046875 C-65.02355469 38.49441406 -65.01195313 37.75835937 -65 37 C-63.88818359 36.79697266 -63.88818359 36.79697266 -62.75390625 36.58984375 C-37.88433206 31.5063445 -17.58314787 17.90936583 0 0 Z " fill="#F9C4AC" transform="translate(174,269)"/>
<path d="M0 0 C4.8080851 0.03270806 8.48875665 0.61694389 13.046875 2.265625 C20.29876674 3.4738293 27.51773667 3.43420308 34.85546875 3.4765625 C36.19011739 3.48955591 37.52475822 3.50337519 38.85939026 3.51797485 C44.48797778 3.57906012 50.11653552 3.63356417 55.74536133 3.66699219 C59.20423918 3.68807204 62.66273042 3.72346713 66.12138557 3.76774979 C68.05817037 3.78855443 69.99510147 3.79393022 71.93199158 3.79891968 C78.8862059 3.89534601 84.61878904 4.59092381 91.046875 7.265625 C92.036875 7.595625 93.026875 7.925625 94.046875 8.265625 C94.046875 8.925625 94.046875 9.585625 94.046875 10.265625 C94.6346875 10.3378125 95.2225 10.41 95.828125 10.484375 C100.73886965 12.21351044 102.91715001 17.83282532 105.046875 22.265625 C108.2740804 31.57522247 109.66870794 41.45218989 110.046875 51.265625 C94.96420375 51.78704897 80.75784689 50.24250827 66.234375 46.078125 C47.39845871 40.87355877 22.32822912 43.08845427 5.12060547 52.29638672 C-3.41962354 57.28162332 -11.06592804 63.17586342 -17.953125 70.265625 C-18.27112165 59.98373346 -17.98627243 50.63116611 -15.68359375 40.56640625 C-15.03953964 37.65610826 -14.61275649 34.8535922 -14.328125 31.890625 C-13.953125 28.265625 -13.953125 28.265625 -12.953125 27.265625 C-12.58551769 24.93744536 -12.25070919 22.6037865 -11.953125 20.265625 C-11.293125 20.265625 -10.633125 20.265625 -9.953125 20.265625 C-10.0459375 19.275625 -10.0459375 19.275625 -10.140625 18.265625 C-9.78787819 12.62167603 -6.46548769 0.87930633 0 0 Z " fill="#C76D5B" transform="translate(261.953125,107.734375)"/>
<path d="M0 0 C12.4400392 10.35068898 21.41753267 25.85883328 23 42 C23.125 45.6875 23.125 45.6875 23 48 C19.65743548 47.73482787 16.33018201 47.39095489 13 47 C12.30519531 46.92394531 11.61039062 46.84789062 10.89453125 46.76953125 C-9.02649984 43.49431337 -27.32612983 26.84641112 -41 13 C-43.91699767 14.30480756 -45.79939947 15.64071666 -47.9375 18 C-62.26209716 32.6591419 -85.1467436 48.30813537 -106.19140625 49.02734375 C-106.78824219 49.01832031 -107.38507813 49.00929688 -108 49 C-106.7604886 33.08206409 -101.98279581 20.56284244 -92 8 C-91.30003906 7.07058594 -90.60007812 6.14117187 -89.87890625 5.18359375 C-89.25886719 4.46300781 -88.63882813 3.74242187 -88 3 C-87.34 3 -86.68 3 -86 3 C-86 2.34 -86 1.68 -86 1 C-84.11590037 -0.54678502 -82.25588801 -1.93887826 -80.25 -3.3125 C-79.66379883 -3.71476807 -79.07759766 -4.11703613 -78.47363281 -4.53149414 C-72.96005437 -8.20449729 -67.28284653 -10.8759695 -61 -13 C-60.278125 -13.24492187 -59.55625 -13.48984375 -58.8125 -13.7421875 C-38.44582509 -19.3738817 -16.24659856 -12.43655554 0 0 Z " fill="#394747" transform="translate(217,257)"/>
<path d="M0 0 C0 0.99 0 1.98 0 3 C-1.7578125 3.9765625 -3.515625 4.953125 -5.2734375 5.9296875 C-7.1612614 7.00897274 -7.1612614 7.00897274 -9 9 C-8.649375 9.61875 -8.29875 10.2375 -7.9375 10.875 C-7.628125 11.57625 -7.31875 12.2775 -7 13 C-7.33 13.66 -7.66 14.32 -8 15 C-7.01 15.33 -6.02 15.66 -5 16 C-4.91902676 18.27024968 -4.86082296 20.54132075 -4.8125 22.8125 C-4.76029297 24.70935547 -4.76029297 24.70935547 -4.70703125 26.64453125 C-5 30 -5 30 -6.21875 31.9375 C-8.51993417 33.31013617 -10.02564028 33.30323303 -12.6875 33.1875 C-13.89986328 33.14689453 -13.89986328 33.14689453 -15.13671875 33.10546875 C-15.75160156 33.07066406 -16.36648437 33.03585937 -17 33 C-17 33.66 -17 34.32 -17 35 C-18.98 35.495 -18.98 35.495 -21 36 C-20.814375 36.556875 -20.62875 37.11375 -20.4375 37.6875 C-20 40 -20 40 -20.75 42.1953125 C-21.12324697 46.38267689 -18.88514126 48.91390988 -16.5625 52.1875 C-12 58.79736256 -12 58.79736256 -12 61 C-11.34 61 -10.68 61 -10 61 C-9.195625 61.99 -8.39125 62.98 -7.5625 64 C0.58143805 73.78857761 12.61148781 80.47641418 25 83 C25 83.33 25 83.66 25 84 C10.01177326 85.1203824 -2.91875942 80.24581639 -14.58984375 70.93359375 C-20.14251875 66.1324086 -24.82480661 61.03197473 -29 55 C-29.53496094 54.24203125 -30.06992188 53.4840625 -30.62109375 52.703125 C-36.78892418 43.28987757 -40.19821139 31.45154554 -40.0625 20.1875 C-40.05347656 19.21167969 -40.04445313 18.23585938 -40.03515625 17.23046875 C-40.02355469 16.49441406 -40.01195313 15.75835937 -40 15 C-39.25878906 14.86464844 -38.51757812 14.72929687 -37.75390625 14.58984375 C-26.43761076 12.27672093 -10.08439181 0 0 0 Z " fill="#E7B69F" transform="translate(149,291)"/>
<path d="M0 0 C-0.00523682 0.6297876 -0.01047363 1.2595752 -0.01586914 1.90844727 C-0.03680138 4.79312115 -0.0497115 7.67777898 -0.0625 10.5625 C-0.07087891 11.55314453 -0.07925781 12.54378906 -0.08789062 13.56445312 C-0.14623476 31.1260364 5.76249197 46.31875052 17 60 C28.6139129 71.16660952 42.96337242 77.65446104 59 79 C59 79.33 59 79.66 59 80 C39.52952589 80.62287062 23.24000971 76.8084576 8 64 C7.37480469 63.51789063 6.74960937 63.03578125 6.10546875 62.5390625 C1.92842082 59.21501173 -0.5928256 55.76542249 -3 51 C-3.39960938 50.32066406 -3.79921875 49.64132813 -4.2109375 48.94140625 C-7.58930607 43.19817969 -9.9519289 37.3329756 -12 31 C-12.34224609 29.96552734 -12.34224609 29.96552734 -12.69140625 28.91015625 C-14.29742044 23.41826156 -15.08575449 17.65085858 -14 12 C-12.10071355 8.8042905 -9.7768486 6.44846609 -7 4 C-6.071875 3.175 -5.14375 2.35 -4.1875 1.5 C-2 0 -2 0 0 0 Z " fill="#DEB096" transform="translate(258,166)"/>
<path d="M0 0 C0.78503906 0.00515625 1.57007813 0.0103125 2.37890625 0.015625 C3.55259766 0.00789063 3.55259766 0.00789063 4.75 0 C6.94140625 0.265625 6.94140625 0.265625 9.94140625 2.265625 C9.34328125 3.379375 8.74515625 4.493125 8.12890625 5.640625 C5.77081313 10.38163328 4.33176637 15.16995516 2.94140625 20.265625 C2.461875 21.88404297 2.461875 21.88404297 1.97265625 23.53515625 C-0.39386684 31.80902295 -1.90598393 39.93699842 -2.93164062 48.47607422 C-3.74404401 54.73731193 -5.02782148 58.49973607 -9.93359375 62.765625 C-10.64128906 63.30703125 -10.64128906 63.30703125 -11.36328125 63.859375 C-13.75199728 65.84079844 -15.88408192 68.05425704 -18.05859375 70.265625 C-18.3765904 59.98373346 -18.09174118 50.63116611 -15.7890625 40.56640625 C-15.14500839 37.65610826 -14.71822524 34.8535922 -14.43359375 31.890625 C-14.05859375 28.265625 -14.05859375 28.265625 -13.05859375 27.265625 C-12.69098644 24.93744536 -12.35617794 22.6037865 -12.05859375 20.265625 C-11.39859375 20.265625 -10.73859375 20.265625 -10.05859375 20.265625 C-10.15140625 19.275625 -10.15140625 19.275625 -10.24609375 18.265625 C-9.88843092 12.54301968 -6.54927446 0.84506767 0 0 Z " fill="#A9513E" transform="translate(262.05859375,107.734375)"/>
<path d="M0 0 C2.15553125 3.23329687 2.72139163 5.61700259 3.625 9.375 C8.24357201 25.90642012 19.63525517 38.95181576 34 48 C37.27784131 49.80105987 40.59123085 51.46198702 44 53 C44 53.33 44 53.66 44 54 C37.25 54.125 37.25 54.125 35 53 C33.214719 52.90614761 31.42895573 52.81708309 29.64208984 52.76098633 C19.84215555 52.42479073 11.4136389 51.14343542 4.25390625 43.85546875 C0.43155132 38.19933606 -0.43424626 33.31582035 -0.29296875 26.66015625 C-0.28872391 25.89319931 -0.28447906 25.12624237 -0.28010559 24.33604431 C-0.2634507 21.91115668 -0.22582553 19.48713202 -0.1875 17.0625 C-0.17243601 15.40821522 -0.15875062 13.75391727 -0.14648438 12.09960938 C-0.11359077 8.06607897 -0.06190249 4.03318527 0 0 Z " fill="#3E4A46" transform="translate(109,319)"/>
<path d="M0 0 C0.33 0 0.66 0 1 0 C1.07460234 4.42908378 1.12881371 8.8578269 1.16479492 13.28735352 C1.17980722 14.79165017 1.20022353 16.29590361 1.22631836 17.80004883 C1.26303816 19.97227696 1.27980161 22.14392251 1.29296875 24.31640625 C1.3086792 25.62037354 1.32438965 26.92434082 1.34057617 28.26782227 C0.95200103 32.52599297 -0.13159476 35.19207376 -2 39 C-2.66 39 -3.32 39 -4 39 C-4.2784375 39.86625 -4.2784375 39.86625 -4.5625 40.75 C-7.14746468 44.79603167 -11.07648862 46.55958567 -15.6315918 47.60253906 C-18.60419392 48.06238912 -21.57210922 48.42599335 -24.5625 48.75 C-25.57763672 48.87503906 -26.59277344 49.00007813 -27.63867188 49.12890625 C-32.44609043 49.70039559 -37.15003582 50.16581074 -42 50 C-39.59936314 47.29729625 -37.08476103 45.87774206 -33.875 44.25 C-15.63226544 34.43252837 -6.44316213 19.25368448 0 0 Z " fill="#3C4947" transform="translate(239,323)"/>
<path d="M0 0 C1.05541992 0.00142502 2.11083984 0.00285004 3.19824219 0.00431824 C4.9902002 -0.00029671 4.9902002 -0.00029671 6.81835938 -0.00500488 C8.11418945 0.00218063 9.41001953 0.00936615 10.74511719 0.01676941 C12.08268184 0.01796129 13.42024734 0.01841436 14.7578125 0.01815796 C17.56222772 0.01972306 20.36651532 0.0280145 23.17089844 0.04142761 C26.76909828 0.05841753 30.36715781 0.06224195 33.96539307 0.06148243 C36.7277155 0.06175412 39.49000714 0.06723514 42.25231934 0.07448387 C44.22550074 0.0792223 46.19868863 0.08094708 48.171875 0.0826416 C49.36651367 0.08902145 50.56115234 0.09540131 51.79199219 0.10197449 C52.84741211 0.10578629 53.90283203 0.10959808 54.99023438 0.11352539 C57.49511719 0.24723816 57.49511719 0.24723816 59.49511719 1.24723816 C59.62011719 4.12223816 59.62011719 4.12223816 59.49511719 7.24723816 C57.49511719 9.24723816 57.49511719 9.24723816 54.93881226 9.48774719 C53.31998642 9.48108536 53.31998642 9.48108536 51.66845703 9.47428894 C49.83678482 9.47406235 49.83678482 9.47406235 47.96810913 9.47383118 C46.63075601 9.46361719 45.29340453 9.45318518 43.95605469 9.44255066 C42.59128018 9.43882096 41.22650299 9.43597379 39.86172485 9.43397522 C36.26790995 9.42633529 32.67425646 9.40668388 29.08050537 9.38456726 C25.41404402 9.36411648 21.74755662 9.35497516 18.08105469 9.34489441 C10.88566857 9.32343819 3.69041548 9.28929808 -3.50488281 9.24723816 C-4.12988281 5.87223816 -4.12988281 5.87223816 -4.50488281 2.24723816 C-2.50488281 0.24723816 -2.50488281 0.24723816 0 0 Z " fill="#F1ECE9" transform="translate(294.5048828125,285.7527618408203)"/>
<path d="M0 0 C1.21473495 -0.00637985 2.42946991 -0.0127597 3.68101501 -0.01933289 C5.01724203 -0.02086145 6.35346958 -0.02197547 7.68969727 -0.02270508 C9.05111222 -0.02591606 10.41252682 -0.02928 11.77394104 -0.03279114 C14.63136597 -0.03878849 17.48876062 -0.04063043 20.34619141 -0.04003906 C24.01284602 -0.03993742 27.67930708 -0.05358891 31.34591579 -0.07081127 C34.15884803 -0.08191452 36.97173323 -0.08395879 39.78468513 -0.08342934 C41.136716 -0.08461202 42.48874798 -0.08904986 43.84075737 -0.0967617 C45.72975053 -0.10652706 47.61880013 -0.10242828 49.5078125 -0.09765625 C50.58401352 -0.09908127 51.66021454 -0.10050629 52.76902771 -0.10197449 C55.31860352 0.14526367 55.31860352 0.14526367 57.31860352 2.14526367 C57.06860352 4.70776367 57.06860352 4.70776367 56.31860352 7.14526367 C53.65005463 8.47953811 51.60364129 8.27973517 48.61547852 8.29052734 C46.82352051 8.30009712 46.82352051 8.30009712 44.99536133 8.30986023 C43.05161621 8.31152946 43.05161621 8.31152946 41.06860352 8.31323242 C39.73103804 8.31644447 38.39347293 8.31980851 37.0559082 8.32331848 C34.25153793 8.32930949 31.44719849 8.33115836 28.64282227 8.33056641 C25.04457621 8.33046467 21.44652698 8.34412875 17.84832764 8.36133862 C15.08600959 8.37244062 12.32373944 8.37448619 9.56140137 8.37395668 C7.58820131 8.37571496 5.6150162 8.38656527 3.6418457 8.39750671 C2.44720703 8.39443008 1.25256836 8.39135345 0.02172852 8.38818359 C-1.03369141 8.38960861 -2.08911133 8.39103363 -3.17651367 8.39250183 C-5.68139648 8.14526367 -5.68139648 8.14526367 -7.68139648 6.14526367 C-6.94200133 0.08222343 -5.87578804 0.02082686 0 0 Z " fill="#EDEEEE" transform="translate(137.681396484375,172.854736328125)"/>
<path d="M0 0 C1.21473495 -0.00637985 2.42946991 -0.0127597 3.68101501 -0.01933289 C5.01724203 -0.02086145 6.35346958 -0.02197547 7.68969727 -0.02270508 C9.05111222 -0.02591606 10.41252682 -0.02928 11.77394104 -0.03279114 C14.63136597 -0.03878849 17.48876062 -0.04063043 20.34619141 -0.04003906 C24.01284602 -0.03993742 27.67930708 -0.05358891 31.34591579 -0.07081127 C34.15884803 -0.08191452 36.97173323 -0.08395879 39.78468513 -0.08342934 C41.136716 -0.08461202 42.48874798 -0.08904986 43.84075737 -0.0967617 C45.72975053 -0.10652706 47.61880013 -0.10242828 49.5078125 -0.09765625 C50.58401352 -0.09908127 51.66021454 -0.10050629 52.76902771 -0.10197449 C55.31860352 0.14526367 55.31860352 0.14526367 57.31860352 2.14526367 C56.76304796 6.70081923 56.76304796 6.70081923 55.31860352 8.14526367 C53.45769776 8.24960986 51.59282076 8.28381004 49.72900391 8.29052734 C48.5342897 8.2969072 47.3395755 8.30328705 46.10865784 8.30986023 C44.80766647 8.31097305 43.50667511 8.31208588 42.16625977 8.31323242 C40.82726505 8.31644343 39.48827069 8.31980738 38.14927673 8.32331848 C35.33893012 8.32931576 32.52861428 8.33115778 29.71826172 8.33056641 C26.11213992 8.33046477 22.50621494 8.34411612 18.90013981 8.36133862 C16.13353056 8.37244226 13.36696914 8.37448612 10.60033989 8.37395668 C8.62271037 8.37571557 6.64509577 8.38656719 4.66749573 8.39750671 C3.46962936 8.39443008 2.271763 8.39135345 1.03759766 8.38818359 C-0.55005653 8.39032112 -0.55005653 8.39032112 -2.16978455 8.39250183 C-4.68139648 8.14526367 -4.68139648 8.14526367 -6.68139648 6.14526367 C-6.86889648 3.58276367 -6.86889648 3.58276367 -6.68139648 1.14526367 C-4.91650397 -0.61962884 -2.3924479 0.00848008 0 0 Z " fill="#F4ECD9" transform="translate(296.681396484375,304.854736328125)"/>
<path d="M0 0 C1.17461792 -0.00637985 2.34923584 -0.0127597 3.55944824 -0.01933289 C4.83340454 -0.02044571 6.10736084 -0.02155853 7.41992188 -0.02270508 C8.72191528 -0.02603348 10.02390869 -0.02936188 11.36535645 -0.03279114 C14.12264841 -0.03878196 16.87990902 -0.04063104 19.63720703 -0.04003906 C23.17492031 -0.03993733 26.7124334 -0.05360148 30.25009918 -0.07081127 C33.61921008 -0.08458345 36.98828314 -0.08401935 40.35742188 -0.08520508 C41.63137817 -0.09239059 42.90533447 -0.09957611 44.21789551 -0.10697937 C45.97982239 -0.10236443 45.97982239 -0.10236443 47.77734375 -0.09765625 C49.33382629 -0.09979378 49.33382629 -0.09979378 50.92175293 -0.10197449 C53.38867188 0.14526367 53.38867188 0.14526367 55.38867188 2.14526367 C55.57617188 4.70776367 55.57617188 4.70776367 55.38867188 7.14526367 C53.62377936 8.91015619 51.09972329 8.28204726 48.70727539 8.29052734 C47.49254044 8.2969072 46.27780548 8.30328705 45.02626038 8.30986023 C43.69003336 8.3113888 42.35380582 8.31250282 41.01757812 8.31323242 C39.65616317 8.3164434 38.29474857 8.31980735 36.93333435 8.32331848 C34.07590942 8.32931584 31.21851477 8.33115777 28.36108398 8.33056641 C24.69442937 8.33046476 21.02796831 8.34411626 17.3613596 8.36133862 C14.54842736 8.37244186 11.73554216 8.37448613 8.92259026 8.37395668 C7.57055939 8.37513936 6.21852741 8.3795772 4.86651802 8.38728905 C2.97752486 8.3970544 1.08847526 8.39295562 -0.80053711 8.38818359 C-2.41483864 8.39032112 -2.41483864 8.39032112 -4.06175232 8.39250183 C-6.61132812 8.14526367 -6.61132812 8.14526367 -8.61132812 6.14526367 C-8.36132812 3.58276367 -8.36132812 3.58276367 -7.61132812 1.14526367 C-4.96486758 -0.1779666 -2.96358476 0.01088665 0 0 Z " fill="#EBEEEB" transform="translate(138.611328125,153.854736328125)"/>
<path d="M0 0 C1.39942104 -0.00384491 1.39942104 -0.00384491 2.82711321 -0.0077675 C5.94258283 -0.01269547 9.05756417 0.00377146 12.17298889 0.02018738 C14.41044605 0.02103386 16.64790404 0.02055809 18.88536072 0.01885986 C24.95300763 0.01799932 31.02047652 0.03563482 37.08808208 0.05658174 C43.4315251 0.0753386 49.77497224 0.0770982 56.11843872 0.08065796 C66.76344748 0.08892211 77.40838596 0.1076593 88.05335999 0.13444519 C99.01559626 0.16200065 109.9778148 0.18322694 120.94007874 0.19596863 C121.61628767 0.1967568 122.2924966 0.19754497 122.98919671 0.19835702 C126.38168633 0.20227226 129.77417608 0.20606335 133.16666591 0.20979273 C161.29129616 0.24087076 189.41585429 0.29391458 217.54042053 0.36076355 C214.90246386 2.99872022 212.9945686 2.60362741 209.40443075 2.6264509 C208.53635907 2.62178768 207.6682874 2.61712447 206.77391052 2.61231995 C205.85496337 2.61529009 204.93601621 2.61826022 203.98922217 2.62132037 C200.8908289 2.62899669 197.79262317 2.62245144 194.69422913 2.61613464 C192.48034028 2.6188829 190.26645242 2.62256178 188.05256653 2.62710571 C183.27476547 2.63523523 178.49701126 2.63738174 173.71920395 2.63515854 C166.16409715 2.63233242 158.6090844 2.64665204 151.05400085 2.66413879 C140.45979735 2.68735686 129.86559837 2.7064631 119.27137756 2.71916199 C118.59872811 2.71997236 117.92607866 2.72078273 117.23304589 2.72161765 C107.69686694 2.73282826 98.16069382 2.73811753 88.62450917 2.74100478 C87.95367887 2.74120877 87.28284856 2.74141276 86.59169006 2.74162292 C85.92167774 2.74182286 85.25166541 2.7420228 84.56134968 2.74222879 C73.3786061 2.745965 62.19593861 2.7653056 51.01323569 2.79671729 C43.50382641 2.81694578 35.99468998 2.81929387 28.48526454 2.80843711 C23.80858356 2.80582954 19.13206128 2.81983702 14.45542145 2.83851814 C12.28828383 2.84383998 10.12111698 2.84234351 7.95399094 2.83348274 C4.99189224 2.8223498 2.03086582 2.83580757 -0.9311676 2.85523987 C-2.21319862 2.84155288 -2.21319862 2.84155288 -3.52112925 2.82758939 C-9.48864308 2.90359651 -13.28976039 4.37166868 -18.45957947 7.36076355 C-17.08729188 4.15685142 -16.61136308 3.44719014 -13.42580318 1.63331127 C-8.97984963 -0.05659002 -4.70678103 -0.04766769 0 0 Z " fill="#A9D6A6" transform="translate(28.459579467773438,56.63923645019531)"/>
<path d="M0 0 C5.65998046 -0.04934926 11.31983636 -0.08569529 16.97998047 -0.10986328 C18.90643494 -0.11993582 20.83287408 -0.13359443 22.75927734 -0.15087891 C25.52445252 -0.17507241 28.289426 -0.18647036 31.0546875 -0.1953125 C31.9193161 -0.20563507 32.7839447 -0.21595764 33.67477417 -0.22659302 C35.78453521 -0.22699106 37.89380718 -0.12265243 40 0 C40.66 0.66 41.32 1.32 42 2 C41.6730244 4.61580479 41.17960932 6.64078137 40 9 C34.48243524 9.0493521 28.96499829 9.08569662 23.44726562 9.10986328 C21.56931318 9.11993534 19.69137647 9.13359362 17.81347656 9.15087891 C15.1177991 9.17507453 12.42232854 9.18647083 9.7265625 9.1953125 C8.88380768 9.20563507 8.04105286 9.21595764 7.17276001 9.22659302 C5.11378753 9.22699144 3.05532065 9.12257588 1 9 C0.34 8.34 -0.32 7.68 -1 7 C-0.625 3.375 -0.625 3.375 0 0 Z " fill="#F3E3B7" transform="translate(312,323)"/>
<path d="M0 0 C2.9719385 1.12451727 5.33440687 2.22293791 8 4 C7.50886719 4.61230469 7.01773438 5.22460938 6.51171875 5.85546875 C4.34816553 10.35588306 4.67687422 14.39171834 4.8125 19.3125 C4.82603516 20.24384766 4.83957031 21.17519531 4.85351562 22.13476562 C4.88873118 24.42377646 4.93797901 26.71158458 5 29 C5.66 29 6.32 29 7 29 C7.125 31.375 7.125 31.375 7 34 C5 36 5 36 1.7421875 36.1953125 C-0.17207031 36.16050781 -0.17207031 36.16050781 -2.125 36.125 C-4.04699219 36.09792969 -4.04699219 36.09792969 -6.0078125 36.0703125 C-6.99523437 36.04710937 -7.98265625 36.02390625 -9 36 C-9.95354931 31.0969982 -9.68404297 28.69759355 -8 24 C-7.50362781 21.16823734 -7.06562671 18.33444768 -6.66015625 15.48828125 C-5.94173347 12.78038002 -5.142199 11.74527929 -3 10 C-3.99 9.67 -4.98 9.34 -6 9 C-3.03 9 -0.06 9 3 9 C3 8.01 3 7.02 3 6 C2.34 5.67 1.68 5.34 1 5 C1.33 4.01 1.66 3.02 2 2 C1.34 2 0.68 2 0 2 C0 1.34 0 0.68 0 0 Z " fill="#EEC1AF" transform="translate(211,297)"/>
<path d="M0 0 C0.85948746 -0.0033284 1.71897491 -0.0066568 2.60450745 -0.01008606 C4.42619286 -0.01515895 6.24788761 -0.01749427 8.06958008 -0.01733398 C10.86359915 -0.01951928 13.65722282 -0.03766769 16.45117188 -0.05664062 C18.21744656 -0.05957465 19.98372313 -0.06155939 21.75 -0.0625 C23.00942665 -0.07327827 23.00942665 -0.07327827 24.29429626 -0.08427429 C30.21258444 -0.06085306 30.21258444 -0.06085306 32.44140625 2.16796875 C32.62890625 4.73046875 32.62890625 4.73046875 32.44140625 7.16796875 C30.3230659 9.2863091 25.59537251 8.33215988 22.6640625 8.3359375 C21.782379 8.3392659 20.9006955 8.3425943 19.99229431 8.34602356 C18.12353031 8.35109658 16.25475721 8.35343177 14.38598633 8.35327148 C11.51954281 8.35545683 8.65348465 8.3736053 5.78710938 8.39257812 C3.97526174 8.39551214 2.16341227 8.39749688 0.3515625 8.3984375 C-0.94067482 8.40921577 -0.94067482 8.40921577 -2.25901794 8.42021179 C-8.32977215 8.39679035 -8.32977215 8.39679035 -10.55859375 6.16796875 C-9.66799842 -1.13491294 -6.52219346 0.00862368 0 0 Z " fill="#E2EDE8" transform="translate(140.55859375,190.83203125)"/>
<path d="M0 0 C0 0.66 0 1.32 0 2 C-1.32 2.33 -2.64 2.66 -4 3 C67.94 3 139.88 3 214 3 C209.46112493 5.26943754 206.02028131 5.27420824 201.09100342 5.24050903 C200.18103709 5.24221788 199.27107077 5.24392673 198.33352971 5.24568737 C195.27793763 5.24898717 192.22256411 5.23797041 189.16699219 5.22705078 C186.97923793 5.22648677 184.79148329 5.22680302 182.60372925 5.22793579 C176.65784173 5.22851071 170.71203455 5.21673382 164.76616573 5.20278788 C158.55482831 5.19030375 152.34348914 5.18911185 146.13214111 5.18673706 C135.70461662 5.18122279 125.27711969 5.16872179 114.84960938 5.15087891 C104.1093765 5.13252002 93.36915165 5.11836356 82.62890625 5.10986328 C81.96684413 5.10933783 81.304782 5.10881239 80.62265739 5.10827102 C77.30127616 5.10566094 73.97989487 5.10313803 70.65851355 5.10064721 C43.10565513 5.07972983 15.55282964 5.04454066 -12 5 C-12.33 4.34 -12.66 3.68 -13 3 C-4.57142857 -0.42857143 -4.57142857 -0.42857143 0 0 Z " fill="#A0CD9D" transform="translate(264,432)"/>
<path d="M0 0 C0.99 0.33 1.98 0.66 3 1 C1.515 3.475 1.515 3.475 0 6 C12.93485656 5.9156082 25.86958965 5.82072905 38.80426979 5.71247292 C44.81040768 5.66253415 50.81652819 5.6162037 56.82275391 5.578125 C62.61943837 5.54124192 68.41597655 5.49487338 74.21253586 5.44193649 C76.42367359 5.42340869 78.63484265 5.40829478 80.84602737 5.39665604 C83.94389056 5.37976624 87.04141993 5.35072399 90.13916016 5.31884766 C91.50941345 5.31560738 91.50941345 5.31560738 92.90734863 5.31230164 C97.66412265 5.24980375 101.52981597 4.8379439 106 3 C105.67 3.99 105.34 4.98 105 6 C99.84631041 8.4719476 94.7234822 8.27100728 89.13916016 8.22705078 C88.16292694 8.22734283 87.18669373 8.22763489 86.18087769 8.22793579 C82.96684763 8.22654687 79.75305186 8.21100612 76.5390625 8.1953125 C74.30561449 8.19158082 72.07216484 8.18873458 69.8387146 8.18673706 C63.96970067 8.17911284 58.10078623 8.15947467 52.23181152 8.1373291 C46.23919012 8.11684463 40.24655259 8.10772978 34.25390625 8.09765625 C22.50256053 8.07622771 10.75128855 8.04210631 -1 8 C-1.625 5.6875 -1.625 5.6875 -2 3 C-1.34 2.01 -0.68 1.02 0 0 Z " fill="#7D7F30" transform="translate(257,347)"/>
<path d="M0 0 C1.05541992 0.00142502 2.11083984 0.00285004 3.19824219 0.00431824 C4.9902002 -0.00029671 4.9902002 -0.00029671 6.81835938 -0.00500488 C8.11418945 0.00218063 9.41001953 0.00936615 10.74511719 0.01676941 C12.08268184 0.01796129 13.42024734 0.01841436 14.7578125 0.01815796 C17.56222772 0.01972306 20.36651532 0.0280145 23.17089844 0.04142761 C26.76909828 0.05841753 30.36715781 0.06224195 33.96539307 0.06148243 C36.7277155 0.06175412 39.49000714 0.06723514 42.25231934 0.07448387 C44.22550074 0.0792223 46.19868863 0.08094708 48.171875 0.0826416 C49.36651367 0.08902145 50.56115234 0.09540131 51.79199219 0.10197449 C52.84741211 0.10578629 53.90283203 0.10959808 54.99023438 0.11352539 C57.49511719 0.24723816 57.49511719 0.24723816 59.49511719 1.24723816 C59.62011719 4.12223816 59.62011719 4.12223816 59.49511719 7.24723816 C57.49511719 9.24723816 57.49511719 9.24723816 54.93881226 9.48774719 C53.31998642 9.48108536 53.31998642 9.48108536 51.66845703 9.47428894 C49.83678482 9.47406235 49.83678482 9.47406235 47.96810913 9.47383118 C46.63075601 9.46361719 45.29340453 9.45318518 43.95605469 9.44255066 C42.59128018 9.43882096 41.22650299 9.43597379 39.86172485 9.43397522 C36.26790995 9.42633529 32.67425646 9.40668388 29.08050537 9.38456726 C25.41404402 9.36411648 21.74755662 9.35497516 18.08105469 9.34489441 C10.88566857 9.32343819 3.69041548 9.28929808 -3.50488281 9.24723816 C-4.12988281 5.87223816 -4.12988281 5.87223816 -4.50488281 2.24723816 C-2.50488281 0.24723816 -2.50488281 0.24723816 0 0 Z M0.49511719 1.24723816 C0.49511719 1.90723816 0.49511719 2.56723816 0.49511719 3.24723816 C-0.49488281 3.24723816 -1.48488281 3.24723816 -2.50488281 3.24723816 C-2.50488281 4.56723816 -2.50488281 5.88723816 -2.50488281 7.24723816 C17.29511719 7.24723816 37.09511719 7.24723816 57.49511719 7.24723816 C57.82511719 5.59723816 58.15511719 3.94723816 58.49511719 2.24723816 C57.46092573 0.99006211 57.46092573 0.99006211 55.21092224 1.12698364 C54.20054398 1.12920425 53.19016571 1.13142487 52.14916992 1.13371277 C50.43750893 1.13382607 50.43750893 1.13382607 48.69126892 1.13394165 C46.82880272 1.14168358 46.82880272 1.14168358 44.92871094 1.14958191 C43.66495132 1.15099686 42.40119171 1.1524118 41.09913635 1.15386963 C37.7338683 1.15853234 34.36866729 1.16752336 31.00341797 1.17857361 C27.57162049 1.1887897 24.1398161 1.19336767 20.70800781 1.19841003 C13.97035894 1.20946436 7.23274194 1.22622106 0.49511719 1.24723816 Z " fill="#F4E0A7" transform="translate(294.5048828125,285.7527618408203)"/>
<path d="M0 0 C1.21473495 -0.00637985 2.42946991 -0.0127597 3.68101501 -0.01933289 C5.01724203 -0.02086145 6.35346958 -0.02197547 7.68969727 -0.02270508 C9.05111222 -0.02591606 10.41252682 -0.02928 11.77394104 -0.03279114 C14.63136597 -0.03878849 17.48876062 -0.04063043 20.34619141 -0.04003906 C24.01284602 -0.03993742 27.67930708 -0.05358891 31.34591579 -0.07081127 C34.15884803 -0.08191452 36.97173323 -0.08395879 39.78468513 -0.08342934 C41.136716 -0.08461202 42.48874798 -0.08904986 43.84075737 -0.0967617 C45.72975053 -0.10652706 47.61880013 -0.10242828 49.5078125 -0.09765625 C50.58401352 -0.09908127 51.66021454 -0.10050629 52.76902771 -0.10197449 C55.31860352 0.14526367 55.31860352 0.14526367 57.31860352 2.14526367 C56.94360352 4.77026367 56.94360352 4.77026367 56.31860352 7.14526367 C55.65860352 6.48526367 54.99860352 5.82526367 54.31860352 5.14526367 C54.31860352 4.15526367 54.31860352 3.16526367 54.31860352 2.14526367 C25.60860352 2.64026367 25.60860352 2.64026367 -3.68139648 3.14526367 C-4.01139648 4.13526367 -4.34139648 5.12526367 -4.68139648 6.14526367 C24.52360352 6.64026367 24.52360352 6.64026367 54.31860352 7.14526367 C54.31860352 7.47526367 54.31860352 7.80526367 54.31860352 8.14526367 C46.53014002 8.19155422 38.7417086 8.22711609 30.95314217 8.24888802 C27.33679479 8.25933617 23.72054135 8.27351399 20.10424805 8.29614258 C16.61591541 8.31783447 13.12767328 8.32982452 9.63927841 8.33501816 C7.65720381 8.34052536 5.67516573 8.35614401 3.69314575 8.37185669 C2.4920517 8.37200775 1.29095764 8.37215881 0.0534668 8.37231445 C-1.00798553 8.37675568 -2.06943787 8.3811969 -3.16305542 8.38577271 C-5.68139648 8.14526367 -5.68139648 8.14526367 -7.68139648 6.14526367 C-6.94200133 0.08222343 -5.87578804 0.02082686 0 0 Z " fill="#D6F0E4" transform="translate(137.681396484375,172.854736328125)"/>
<path d="M0 0 C1.73316094 0.11810296 3.46244192 0.2951348 5.1875 0.5 C9.34934707 0.92810667 12.89351438 0.99887488 17 0 C19 3 19 3 19 4.9375 C17.3837083 8.27110163 15.26128404 9.33970995 12 11 C8.36950077 11.78672846 5.3820135 11.84619047 2.15625 9.87109375 C0.5 8.5 0.5 8.5 -2 6 C-1.125 1.125 -1.125 1.125 0 0 Z " fill="#4B4F4C" transform="translate(301,192)"/>
<path d="M0 0 C1.2582811 -0.00953201 2.51656219 -0.01906403 3.81297302 -0.02888489 C5.1735741 -0.02862343 6.53417519 -0.02768625 7.89477539 -0.02612305 C9.30432765 -0.03001507 10.71387874 -0.03435078 12.12342834 -0.03910828 C15.07125661 -0.04654994 18.01896506 -0.0462941 20.96679688 -0.04101562 C24.73045365 -0.0352221 28.49361813 -0.05215865 32.25719357 -0.0753603 C35.16641572 -0.09014467 38.07552056 -0.09096301 40.98477364 -0.08785057 C42.37175026 -0.08836137 43.75873387 -0.09355353 45.14567375 -0.10366249 C58.46985411 -0.18887337 58.46985411 -0.18887337 64.55493164 3.2746582 C64.55493164 3.6046582 64.55493164 3.9346582 64.55493164 4.2746582 C63.51522217 4.11312256 62.4755127 3.95158691 61.40429688 3.78515625 C55.2744619 3.02422337 49.13324102 3.11221206 42.96508789 3.10668945 C41.01644081 3.10169685 41.01644081 3.10169685 39.02842712 3.09660339 C36.28928801 3.09064583 33.55018029 3.08876009 30.81103516 3.08935547 C27.323507 3.0894571 23.83618239 3.07578919 20.34870243 3.05858326 C16.99166164 3.04471067 13.63465691 3.0453727 10.27758789 3.04418945 C8.41626976 3.03341118 8.41626976 3.03341118 6.51734924 3.02241516 C-0.09294482 3.03972738 -6.07689826 3.4864432 -12.44506836 5.2746582 C-13.77774378 5.61061225 -15.11090146 5.94467703 -16.44506836 6.2746582 C-11.82136509 0.93961597 -6.86503797 0.02868885 0 0 Z " fill="#CFB53D" transform="translate(296.445068359375,263.725341796875)"/>
<path d="M0 0 C2.5 0.125 2.5 0.125 3.5 1.125 C6.57605342 1.26482061 9.24133154 1.18378829 12.25 0.5 C12.9925 0.37625 13.735 0.2525 14.5 0.125 C15.16 0.785 15.82 1.445 16.5 2.125 C16.34304851 5.18555405 16.01671876 6.64180438 13.75390625 8.7578125 C9.86922736 11.11420351 5.89625115 10.76419645 1.5 10.125 C-1.625 8.4375 -1.625 8.4375 -3.5 6.125 C-3.875 3.4375 -3.875 3.4375 -3.5 1.125 C-2.5 0.125 -2.5 0.125 0 0 Z " fill="#454A47" transform="translate(168.5,321.875)"/>
<path d="M0 0 C12.21 0 24.42 0 37 0 C37.495 1.98 37.495 1.98 38 4 C25.33333333 4 12.66666667 4 0 4 C0 2.68 0 1.36 0 0 Z " fill="#EEECED" transform="translate(314,325)"/>
<path d="M0 0 C7.90198532 0.01486431 15.80318611 0.05640782 23.70480061 0.13209057 C27.37384031 0.16639313 31.04246226 0.19147544 34.71166992 0.19555664 C38.2522809 0.1998329 41.79194898 0.22823672 45.33226585 0.27343178 C47.34131771 0.29275748 49.35055957 0.28704278 51.35969543 0.28105164 C52.58073471 0.30069473 53.80177399 0.32033783 55.05981445 0.34057617 C56.13681107 0.34723801 57.21380768 0.35389984 58.32344055 0.36076355 C61 1 61 1 62.89079285 3.36543274 C64.18121757 6.43042445 63.98225907 7.87463022 63 11 C62.01 10.67 61.02 10.34 60 10 C60.2784375 8.7934375 60.2784375 8.7934375 60.5625 7.5625 C60.706875 6.716875 60.85125 5.87125 61 5 C59.23246465 3.23246465 56.68441194 3.82913939 54.28686523 3.79467773 C53.0656749 3.77473251 51.84448456 3.75478729 50.58628845 3.73423767 C49.24372487 3.71725209 47.90115993 3.70037333 46.55859375 3.68359375 C45.19238139 3.66303053 43.82617549 3.64203423 42.4599762 3.62062073 C38.85805476 3.56533465 35.25607529 3.51595437 31.65405273 3.46777344 C27.98090428 3.41760597 24.30784045 3.36189515 20.63476562 3.30664062 C13.42324868 3.19897918 6.21166153 3.09755213 -1 3 C-0.67 2.01 -0.34 1.02 0 0 Z " fill="#E6C452" transform="translate(292,302)"/>
<path d="M0 0 C0.66 0 1.32 0 2 0 C2 0.66 2 1.32 2 2 C1.236875 2.70125 0.47375 3.4025 -0.3125 4.125 C-6.28682121 10.51613432 -6.41918665 17.46567974 -6.2578125 25.7734375 C-6.25119598 26.77839264 -6.24457947 27.78334778 -6.23776245 28.8187561 C-6.21449714 32.00449276 -6.1707754 35.18951423 -6.125 38.375 C-6.08993966 41.58182038 -6.05918819 44.78860356 -6.03366089 47.99551392 C-6.01667332 49.98546674 -5.99352277 51.97537828 -5.96365356 53.96517944 C-5.95389496 54.86016144 -5.94413635 55.75514343 -5.93408203 56.67724609 C-5.92281281 57.46586029 -5.91154358 58.25447449 -5.89993286 59.06698608 C-6 61 -6 61 -7 63 C-7.66 63 -8.32 63 -9 63 C-9 63.99 -9 64.98 -9 66 C-10.485 66.495 -10.485 66.495 -12 67 C-11.51345947 66.08589355 -11.51345947 66.08589355 -11.01708984 65.15332031 C-9.55323259 60.61487089 -9.72171056 56.28697073 -9.7265625 51.546875 C-9.70626763 49.46223427 -9.68541674 47.3775989 -9.6640625 45.29296875 C-9.64151143 42.02355424 -9.62500781 38.75435187 -9.61914062 35.48486328 C-9.60956766 32.31764842 -9.5757279 29.15137649 -9.5390625 25.984375 C-9.54410797 25.01844421 -9.54915344 24.05251343 -9.55435181 23.05731201 C-9.42111463 13.77360474 -6.48595132 6.65663425 0 0 Z " fill="#E0C343" transform="translate(278,270)"/>
<path d="M0 0 C1.21465942 -0.00315216 2.42931885 -0.00630432 3.68078613 -0.009552 C5.65734192 -0.00651566 5.65734192 -0.00651566 7.67382812 -0.00341797 C9.03381365 -0.00409135 10.39379906 -0.00506166 11.75378418 -0.00631714 C14.60523626 -0.0077925 17.45665703 -0.00564475 20.30810547 -0.00097656 C23.96682985 0.00472064 27.62548088 0.00144077 31.28420258 -0.00454903 C34.09284012 -0.008159 36.90146021 -0.00701404 39.71009827 -0.00442123 C41.7165227 -0.00342778 43.72294781 -0.00646978 45.72937012 -0.009552 C47.55135925 -0.00482376 47.55135925 -0.00482376 49.41015625 0 C51.01993347 0.00119339 51.01993347 0.00119339 52.66223145 0.00241089 C55.20507812 0.12939453 55.20507812 0.12939453 57.20507812 1.12939453 C56.87507813 1.78939453 56.54507813 2.44939453 56.20507812 3.12939453 C36.07507813 3.12939453 15.94507813 3.12939453 -4.79492188 3.12939453 C-5.45492187 4.77939453 -6.11492187 6.42939453 -6.79492188 8.12939453 C-7.12492188 8.12939453 -7.45492187 8.12939453 -7.79492188 8.12939453 C-7.79492188 5.81939453 -7.79492188 3.50939453 -7.79492188 1.12939453 C-5.10193034 -0.21710124 -3.01516149 0.00223526 0 0 Z " fill="#6EB496" transform="translate(136.794921875,170.87060546875)"/>
<path d="M0 0 C1.77149666 0.00022659 1.77149666 0.00022659 3.57878113 0.00045776 C5.49138481 0.01594162 5.49138481 0.01594162 7.44262695 0.03173828 C9.40060966 0.03598312 9.40060966 0.03598312 11.39814758 0.04031372 C14.86536335 0.04794331 18.33241108 0.06758585 21.79956055 0.08972168 C25.33876268 0.11019473 28.87799202 0.11931855 32.41723633 0.12939453 C39.35936257 0.15083248 46.30137731 0.18496022 53.2434082 0.22705078 C50.69611124 2.77434774 49.74977715 2.49063751 46.21459961 2.5300293 C45.16656158 2.5466713 44.11852356 2.56331329 43.03872681 2.58045959 C41.90228729 2.58887375 40.76584778 2.5972879 39.5949707 2.60595703 C38.43089691 2.62295151 37.26682312 2.63994598 36.06747437 2.65745544 C32.33450799 2.71073709 28.60155288 2.7509337 24.8684082 2.78955078 C21.14246338 2.83348428 17.41660486 2.88023626 13.69076538 2.93235779 C11.36923671 2.96428961 9.0476323 2.99118753 6.72598267 3.0125885 C5.67164032 3.02607834 4.61729797 3.03956818 3.53100586 3.0534668 C2.60438141 3.06297867 1.67775696 3.07249054 0.72305298 3.08229065 C-1.62973446 3.21964493 -3.55151919 3.39559707 -5.7565918 4.22705078 C-6.4165918 5.21705078 -7.0765918 6.20705078 -7.7565918 7.22705078 C-8.0865918 5.57705078 -8.4165918 3.92705078 -8.7565918 2.22705078 C-5.30973409 -0.07085435 -4.05540228 -0.01729383 0 0 Z " fill="#CCE5D8" transform="translate(138.756591796875,153.77294921875)"/>
<path d="M0 0 C1.26714844 -0.01417969 2.53429687 -0.02835937 3.83984375 -0.04296875 C7.0625 0.1875 7.0625 0.1875 9.0625 2.1875 C9.25 4.75 9.25 4.75 9.0625 7.1875 C7.30690058 8.94309942 5.02667558 8.31971919 2.69140625 8.32421875 C1.98886719 8.32035156 1.28632813 8.31648438 0.5625 8.3125 C-0.14003906 8.31636719 -0.84257812 8.32023437 -1.56640625 8.32421875 C-6.81088622 8.31411378 -6.81088622 8.31411378 -7.9375 7.1875 C-8.0625 4.1875 -8.0625 4.1875 -7.9375 1.1875 C-6.00408053 -0.74591947 -2.56270879 0.01300867 0 0 Z " fill="#F78183" transform="translate(139.9375,324.8125)"/>
<path d="M0 0 C0.66 0 1.32 0 2 0 C2 0.99 2 1.98 2 3 C3.65 3 5.3 3 7 3 C3.46899856 5.7071011 1.43852502 7.12586281 -3.03689575 7.12025452 C-4.30314285 7.12231651 -4.30314285 7.12231651 -5.5949707 7.12442017 C-6.522854 7.12082489 -7.4507373 7.11722961 -8.40673828 7.11352539 C-9.87021194 7.11374443 -9.87021194 7.11374443 -11.36325073 7.1139679 C-14.59896034 7.11326935 -17.8346129 7.10547966 -21.0703125 7.09765625 C-23.30947844 7.09579186 -25.54864479 7.09436806 -27.78781128 7.09336853 C-33.68972901 7.08954498 -39.59162224 7.07971607 -45.49353027 7.06866455 C-51.51261056 7.05844694 -57.5316948 7.05387016 -63.55078125 7.04882812 C-75.36719828 7.03809367 -87.18359711 7.02101918 -99 7 C-98.34 5.35 -97.68 3.7 -97 2 C-96.67 2.99 -96.34 3.98 -96 5 C-63.99 5 -31.98 5 1 5 C0.505 2.525 0.505 2.525 0 0 Z " fill="#E1C442" transform="translate(356,346)"/>
<path d="M0 0 C1.1653125 0.00515625 2.330625 0.0103125 3.53125 0.015625 C4.6965625 0.01046875 5.861875 0.0053125 7.0625 0 C10.03125 0.265625 10.03125 0.265625 12.03125 2.265625 C11.65625 5.390625 11.65625 5.390625 11.03125 8.265625 C8.55201199 8.29247595 6.0730616 8.31239047 3.59375 8.328125 C2.88669922 8.33650391 2.17964844 8.34488281 1.45117188 8.35351562 C-0.35568559 8.36216088 -2.16262603 8.31782511 -3.96875 8.265625 C-4.96875 7.265625 -4.96875 7.265625 -5.15625 4.828125 C-4.87320741 0.95987631 -3.78681764 0.33882053 0 0 Z " fill="#F78184" transform="translate(340.96875,194.734375)"/>
<path d="M0 0 C1.1653125 0.01417969 2.330625 0.02835937 3.53125 0.04296875 C5.27921875 0.05263672 5.27921875 0.05263672 7.0625 0.0625 C10.03125 0.23046875 10.03125 0.23046875 12.03125 1.23046875 C12.15625 3.60546875 12.15625 3.60546875 12.03125 6.23046875 C10.03125 8.23046875 10.03125 8.23046875 6.7734375 8.42578125 C5.49726563 8.40257812 4.22109375 8.379375 2.90625 8.35546875 C0.98425781 8.32839844 0.98425781 8.32839844 -0.9765625 8.30078125 C-2.45769531 8.26597656 -2.45769531 8.26597656 -3.96875 8.23046875 C-4.59375 5.35546875 -4.59375 5.35546875 -4.96875 2.23046875 C-2.96875 0.23046875 -2.96875 0.23046875 0 0 Z " fill="#F38383" transform="translate(205.96875,324.76953125)"/>
<path d="M0 0 C6.06076928 6.86887185 6.30104855 13.13150538 6.265625 21.91015625 C6.26753845 22.95521835 6.2694519 24.00028046 6.27142334 25.07701111 C6.27278078 27.2799402 6.26911522 29.48287742 6.26074219 31.68579102 C6.25002583 35.05438201 6.2606582 38.42244102 6.2734375 41.79101562 C6.27211604 43.93489701 6.26955392 46.07877806 6.265625 48.22265625 C6.26967346 49.2279689 6.27372192 50.23328156 6.27789307 51.26905823 C6.27158875 52.21031052 6.26528442 53.15156281 6.25878906 54.12133789 C6.25640228 55.35660973 6.25640228 55.35660973 6.25396729 56.61683655 C5.96267634 59.35023564 5.11983189 61.50146324 4 64 C3.67 64 3.34 64 3 64 C3.00222061 63.3257045 3.00444122 62.651409 3.00672913 61.9566803 C3.02877929 54.96567309 3.04390547 47.97467569 3.05493164 40.98364258 C3.05997377 38.37133381 3.06680725 35.75902789 3.07543945 33.14672852 C3.08751036 29.40119732 3.09322935 25.65570328 3.09765625 21.91015625 C3.10281754 20.73413345 3.10797882 19.55811066 3.11329651 18.34645081 C3.11337204 17.26540573 3.11344757 16.18436066 3.11352539 15.07055664 C3.115746 14.11347305 3.11796661 13.15638947 3.12025452 12.17030334 C3.24312499 10.02082376 3.24312499 10.02082376 2 9 C1.95936168 7.33382885 1.957279 5.66611905 2 4 C1.34 4 0.68 4 0 4 C0 2.68 0 1.36 0 0 Z " fill="#D2BC44" transform="translate(369,274)"/>
<path d="M0 0 C1.60488281 -0.02126953 1.60488281 -0.02126953 3.2421875 -0.04296875 C6.125 0.1875 6.125 0.1875 9.125 2.1875 C8.25 7.0625 8.25 7.0625 7.125 8.1875 C4.98192104 8.31287741 2.83421114 8.36324364 0.6875 8.375 C-0.48683594 8.38917969 -1.66117187 8.40335938 -2.87109375 8.41796875 C-5.875 8.1875 -5.875 8.1875 -7.875 6.1875 C-7.12658171 0.05047003 -5.95524506 0.03570291 0 0 Z " fill="#F78184" transform="translate(273.875,194.8125)"/>
<path d="M0 0 C4.875 0.875 4.875 0.875 6 2 C6.09873816 3.99799572 6.12971799 5.99957158 6.125 8 C6.12757813 9.093125 6.13015625 10.18625 6.1328125 11.3125 C6 14 6 14 5 15 C2.5625 15.1875 2.5625 15.1875 0 15 C-2 13 -2 13 -2.265625 10.72265625 C-2.26046875 9.84480469 -2.2553125 8.96695313 -2.25 8.0625 C-2.25515625 7.18722656 -2.2603125 6.31195313 -2.265625 5.41015625 C-2 3 -2 3 0 0 Z " fill="#55534F" transform="translate(342,178)"/>
<path d="M0 0 C4.55555556 0.55555556 4.55555556 0.55555556 6 2 C6.12487758 3.80927281 6.17570846 5.62396107 6.1875 7.4375 C6.20167969 8.42621094 6.21585938 9.41492188 6.23046875 10.43359375 C6 13 6 13 4 15 C-0.55555556 14.44444444 -0.55555556 14.44444444 -2 13 C-2.12487758 11.19072719 -2.17570846 9.37603893 -2.1875 7.5625 C-2.20167969 6.57378906 -2.21585938 5.58507812 -2.23046875 4.56640625 C-2 2 -2 2 0 0 Z " fill="#434949" transform="translate(138,308)"/>
<path d="M0 0 C4.55555556 0.55555556 4.55555556 0.55555556 6 2 C6.12487758 3.80927281 6.17570846 5.62396107 6.1875 7.4375 C6.20167969 8.42621094 6.21585938 9.41492188 6.23046875 10.43359375 C6 13 6 13 4 15 C-0.55555556 14.44444444 -0.55555556 14.44444444 -2 13 C-2.12487758 11.19072719 -2.17570846 9.37603893 -2.1875 7.5625 C-2.20167969 6.57378906 -2.21585938 5.58507812 -2.23046875 4.56640625 C-2 2 -2 2 0 0 Z " fill="#494C49" transform="translate(208,308)"/>
<path d="M0 0 C8.84125833 0.0614185 17.68219947 0.13867222 26.523139 0.23571491 C30.62909388 0.28029554 34.73495236 0.31957811 38.84106445 0.34643555 C42.80942715 0.37259222 46.77741635 0.41308013 50.74554634 0.46318626 C52.25362029 0.47977191 53.76175872 0.49133759 55.26991081 0.49761391 C63.36810498 0.53470093 70.43461393 0.86139863 78 4 C78.99 4.33 79.98 4.66 81 5 C81 5.66 81 6.32 81 7 C81.639375 7.103125 82.27875 7.20625 82.9375 7.3125 C83.618125 7.539375 84.29875 7.76625 85 8 C85.495 9.485 85.495 9.485 86 11 C85.34 11 84.68 11 84 11 C84 10.34 84 9.68 84 9 C82.02 8.67 80.04 8.34 78 8 C77.505 6.515 77.505 6.515 77 5 C68.6284293 3.14515933 60.56884425 2.67930786 52.01171875 2.62109375 C50.02245622 2.59512808 48.03319373 2.56915781 46.04393482 2.5429163 C43.28957084 2.5088037 40.53515452 2.4830473 37.78070068 2.45739746 C32.93873189 2.41137087 28.0968774 2.35613925 23.25508118 2.29469299 C20.68530403 2.26292154 18.11546151 2.23597509 15.545578 2.21446228 C13.79764702 2.19422752 13.79764702 2.19422752 12.0144043 2.17358398 C10.99501266 2.16407211 9.97562103 2.15456024 8.92533875 2.14476013 C5.8854141 1.99432973 2.9899072 1.55734014 0 1 C0 0.67 0 0.34 0 0 Z " fill="#AA715B" transform="translate(275,111)"/>
<path d="M0 0 C2.5625 0.1875 2.5625 0.1875 4.5625 2.1875 C4.828125 4.5 4.828125 4.5 4.8125 7.1875 C4.81765625 8.074375 4.8228125 8.96125 4.828125 9.875 C4.5625 12.1875 4.5625 12.1875 2.5625 14.1875 C0 14.375 0 14.375 -2.4375 14.1875 C-3.4375 13.1875 -3.4375 13.1875 -3.5703125 10.5 C-3.56773437 9.406875 -3.56515625 8.31375 -3.5625 7.1875 C-3.56507813 6.094375 -3.56765625 5.00125 -3.5703125 3.875 C-3.39170875 0.26090067 -3.39170875 0.26090067 0 0 Z " fill="#4B4641" transform="translate(274.4375,178.8125)"/>
<path d="M0 0 C2.12794168 3.19191253 2.26099543 4.07320984 2.31884766 7.74682617 C2.33871735 8.70759567 2.35858704 9.66836517 2.37905884 10.6582489 C2.39061005 11.69270645 2.40216125 12.727164 2.4140625 13.79296875 C2.43342865 14.85413406 2.4527948 15.91529938 2.4727478 17.00862122 C2.53257833 20.40149878 2.57894321 23.7944102 2.625 27.1875 C2.66317655 29.48634301 2.70222809 31.78517167 2.7421875 34.08398438 C2.83828268 39.72252895 2.92332006 45.36115979 3 51 C2.67 50.34 2.34 49.68 2 49 C1.34 49 0.68 49 0 49 C0 32.83 0 16.66 0 0 Z " fill="#4B8159" transform="translate(215,151)"/>
<path d="M0 0 C2.17244794 2.17244794 2.65213065 3.44072049 3.61987305 6.31030273 C3.92326096 7.20140244 4.22664886 8.09250214 4.53923035 9.01060486 C4.86015152 9.97519119 5.18107269 10.93977753 5.51171875 11.93359375 C5.8442012 12.92247086 6.17668365 13.91134796 6.51924133 14.93019104 C7.22072739 17.02315503 7.91906381 19.11717688 8.61450195 21.2121582 C9.68318702 24.42453553 10.76773534 27.63125725 11.85351562 30.83789062 C12.53222288 32.86946691 13.20998911 34.90135786 13.88671875 36.93359375 C14.21371262 37.89615585 14.54070648 38.85871796 14.87760925 39.85044861 C15.17154068 40.74470047 15.46547211 41.63895233 15.76831055 42.56030273 C16.03097214 43.34702866 16.29363373 44.13375458 16.56425476 44.94432068 C17 47 17 47 16 50 C13.87899221 46.81848831 13.32607928 44.50093369 12.5625 40.83984375 C12.08890893 38.77592886 12.08890893 38.77592886 10 37 C9.62005706 35.34333701 9.29245815 33.67432288 9 32 C8.51847059 30.34866818 8.01822612 28.70268567 7.5 27.0625 C6.59674954 24.13893569 5.91676699 21.4728576 5.4375 18.4375 C5.293125 17.633125 5.14875 16.82875 5 16 C4.34 15.67 3.68 15.34 3 15 C2.27359045 12.68456957 1.61568542 10.34730065 1 8 C0.608125 6.906875 0.21625 5.81375 -0.1875 4.6875 C-1 2 -1 2 0 0 Z " fill="#A5D2A4" transform="translate(450,288)"/>
<path d="M0 0 C0.33 0 0.66 0 1 0 C1.04241723 2.33294775 1.04092937 4.66702567 1 7 C0.67 7.33 0.34 7.66 0 8 C-0.3540813 10.13936518 -0.65742783 12.28719385 -0.9375 14.4375 C-1.83752389 21.32759888 -1.83752389 21.32759888 -2.5078125 24.1015625 C-4.49106101 32.38619635 -4.22134115 40.66879198 -4.125 49.125 C-4.11494704 50.66926501 -4.10582529 52.21353638 -4.09765625 53.7578125 C-4.07583336 57.50534249 -4.04143206 61.25262946 -4 65 C-4.66 64.67 -5.32 64.34 -6 64 C-6.02464775 58.46411467 -6.04283496 52.928261 -6.05493164 47.39233398 C-6.05997244 45.5075627 -6.06680498 43.62279535 -6.07543945 41.73803711 C-6.08751617 39.03498364 -6.09323068 36.33198169 -6.09765625 33.62890625 C-6.10281754 32.78099014 -6.10797882 31.93307404 -6.11329651 31.0594635 C-6.11349195 29.03928932 -6.06206211 27.01922066 -6 25 C-5.67 24.67 -5.34 24.34 -5 24 C-4.72857926 22.64864755 -4.51009578 21.2865387 -4.31640625 19.921875 C-4.19330078 19.09042969 -4.07019531 18.25898438 -3.94335938 17.40234375 C-3.69173025 15.64997274 -3.44170028 13.89737128 -3.19335938 12.14453125 C-2.55310082 7.83854365 -1.89482259 3.97010447 0 0 Z " fill="#6B6845" transform="translate(249,128)"/>
<path d="M0 0 C1.67542976 0.28604898 3.34385343 0.61781233 5 1 C5.33 1.99 5.66 2.98 6 4 C7.65 4 9.3 4 11 4 C10.01 5.485 10.01 5.485 9 7 C8.34 7 7.68 7 7 7 C7 7.66 7 8.32 7 9 C1.58860759 9.36075949 1.58860759 9.36075949 -0.9375 7.8125 C-2 6 -2 6 -1.75 3.375 C-1 1 -1 1 0 0 Z " fill="#3D4749" transform="translate(301,192)"/>
<path d="M0 0 C-0.33 0.99 -0.66 1.98 -1 3 C-31.195 2.505 -31.195 2.505 -62 2 C-62 1.67 -62 1.34 -62 1 C-54.21151615 0.86942042 -46.42302934 0.73901961 -38.63453865 0.60884857 C-35.01823912 0.54840278 -31.40194066 0.48789484 -27.78564453 0.42724609 C-24.29732374 0.36874588 -20.80900028 0.31040732 -17.3206749 0.25218201 C-15.33862879 0.21905612 -13.3565855 0.18576176 -11.37454224 0.15246582 C-10.17344818 0.13244507 -8.97235413 0.11242432 -7.73486328 0.09179688 C-6.67341095 0.07403198 -5.61195862 0.05626709 -4.51834106 0.03796387 C-3.01234533 0.01526106 -1.50616685 0 0 0 Z " fill="#74B096" transform="translate(194,180)"/>
<path d="M0 0 C0.33 0 0.66 0 1 0 C1 2.64 1 5.28 1 8 C-1.50549445 9.25274723 -3.19735632 9.12029624 -6.00048828 9.11352539 C-7.56188034 9.11341209 -7.56188034 9.11341209 -9.15481567 9.11329651 C-10.28192963 9.10813522 -11.40904358 9.10297394 -12.5703125 9.09765625 C-13.72167694 9.0962413 -14.87304138 9.09482635 -16.05929565 9.09336853 C-19.74788986 9.08775716 -23.43642405 9.0752027 -27.125 9.0625 C-29.62109288 9.05748647 -32.1171867 9.05292331 -34.61328125 9.04882812 C-40.74220809 9.03778403 -46.87109976 9.0210348 -53 9 C-53 8.67 -53 8.34 -53 8 C-36.17 8 -19.34 8 -2 8 C-1.34 5.36 -0.68 2.72 0 0 Z " fill="#EBC437" transform="translate(354,288)"/>
<path d="M0 0 C2.29141286 -0.05384521 4.58318188 -0.09272087 6.875 -0.125 C8.78925781 -0.15980469 8.78925781 -0.15980469 10.7421875 -0.1953125 C14 0 14 0 16 2 C16.1875 4.5625 16.1875 4.5625 16 7 C15 8 15 8 11.62109375 8.09765625 C10.22652923 8.09098369 8.83198257 8.07902532 7.4375 8.0625 C6.37112305 8.05573242 6.37112305 8.05573242 5.28320312 8.04882812 C3.52209987 8.03700864 1.76103964 8.01907263 0 8 C-0.33 7.34 -0.66 6.68 -1 6 C3.62 6 8.24 6 13 6 C13 5.01 13 4.02 13 3 C10.24921116 2.08307039 8.64051087 1.89113917 5.8125 1.9375 C4.554375 1.958125 3.29625 1.97875 2 2 C1.67 2.99 1.34 3.98 1 5 C0.34 5 -0.32 5 -1 5 C-0.67 3.35 -0.34 1.7 0 0 Z " fill="#EF9089" transform="translate(133,325)"/>
<path d="M0 0 C1.1653125 0.00515625 2.330625 0.0103125 3.53125 0.015625 C4.6965625 0.01046875 5.861875 0.0053125 7.0625 0 C10.03125 0.265625 10.03125 0.265625 12.03125 2.265625 C11.65625 5.390625 11.65625 5.390625 11.03125 8.265625 C8.55201199 8.29247595 6.0730616 8.31239047 3.59375 8.328125 C2.88669922 8.33650391 2.17964844 8.34488281 1.45117188 8.35351562 C-0.35568559 8.36216088 -2.16262603 8.31782511 -3.96875 8.265625 C-4.96875 7.265625 -4.96875 7.265625 -5.15625 4.828125 C-4.87320741 0.95987631 -3.78681764 0.33882053 0 0 Z M-1.96875 3.265625 C-1.6502323 5.37383297 -1.6502323 5.37383297 -0.96875 7.265625 C0.65588842 7.31957978 2.28103541 7.35839695 3.90625 7.390625 C4.81117188 7.41382813 5.71609375 7.43703125 6.6484375 7.4609375 C9.21931994 7.50887336 9.21931994 7.50887336 11.03125 5.265625 C11.03125 4.275625 11.03125 3.285625 11.03125 2.265625 C8.67778604 1.08889302 7.1506467 1.09938634 4.53125 1.078125 C3.7371875 1.06394531 2.943125 1.04976562 2.125 1.03515625 C-0.18908317 1.06896197 -0.18908317 1.06896197 -1.96875 3.265625 Z " fill="#EE8B88" transform="translate(340.96875,194.734375)"/>
<path d="M0 0 C1.60488281 -0.02126953 1.60488281 -0.02126953 3.2421875 -0.04296875 C6.125 0.1875 6.125 0.1875 9.125 2.1875 C8.25 7.0625 8.25 7.0625 7.125 8.1875 C4.98192104 8.31287741 2.83421114 8.36324364 0.6875 8.375 C-0.48683594 8.38917969 -1.66117187 8.40335938 -2.87109375 8.41796875 C-5.875 8.1875 -5.875 8.1875 -7.875 6.1875 C-7.12658171 0.05047003 -5.95524506 0.03570291 0 0 Z M-4.875 1.1875 C-5.205 2.5075 -5.535 3.8275 -5.875 5.1875 C-2.81253253 6.97159802 -0.65420727 7.41630021 2.875 7.3125 C4.07382812 7.28542969 4.07382812 7.28542969 5.296875 7.2578125 C6.20179688 7.22300781 6.20179688 7.22300781 7.125 7.1875 C6.795 5.5375 6.465 3.8875 6.125 2.1875 C2.45089215 1.01178549 -1.04429183 1.11383254 -4.875 1.1875 Z " fill="#ED8985" transform="translate(273.875,194.8125)"/>
<path d="M0 0 C2.82271711 2.82271711 3.20279506 6.09727381 4.0625 9.875 C4.2387793 10.63353271 4.41505859 11.39206543 4.59667969 12.17358398 C5.99050349 18.41878412 6.75341044 24.60100104 7 31 C5.35 30.67 3.7 30.34 2 30 C2.33 29.34 2.66 28.68 3 28 C3.63623216 20.4875664 2.75089135 13.80862577 0.65625 6.59375 C0 4 0 4 0 0 Z " fill="#AA725B" transform="translate(365,128)"/>
<path d="M0 0 C0.66 0.33 1.32 0.66 2 1 C2.96057505 11.72209445 3.03946292 21.36445372 1 32 C-0.485 32.495 -0.485 32.495 -2 33 C-1.855625 32.37738281 -1.71125 31.75476563 -1.5625 31.11328125 C0.5119714 20.78414239 0.19164582 10.4903975 0 0 Z " fill="#616A46" transform="translate(374,166)"/>
<path d="M0 0 C3.7952131 1.49097658 5.61042731 3.75700849 8 7 C7.13375 7.185625 7.13375 7.185625 6.25 7.375 C3.96658543 7.93192405 3.96658543 7.93192405 1.875 9.0625 C0 10 0 10 -2 10 C-1.34 8.35 -0.68 6.7 0 5 C-1.32 4.67 -2.64 4.34 -4 4 C-2.68 2.68 -1.36 1.36 0 0 Z " fill="#EFC2AA" transform="translate(174,269)"/>
<path d="M0 0 C12.87 0 25.74 0 39 0 C39.495 2.475 39.495 2.475 40 5 C39.34 5.33 38.68 5.66 38 6 C37.505 3.525 37.505 3.525 37 1 C24.79 1 12.58 1 0 1 C0 0.67 0 0.34 0 0 Z " fill="#F8ECCF" transform="translate(314,324)"/>
<path d="M0 0 C0.33 0 0.66 0 1 0 C1.07347656 1.15628906 1.07347656 1.15628906 1.1484375 2.3359375 C1.22320312 3.33882813 1.29796875 4.34171875 1.375 5.375 C1.44460937 6.37273437 1.51421875 7.37046875 1.5859375 8.3984375 C1.76363964 11.15508879 1.76363964 11.15508879 4 13 C6.32275177 13.40047444 8.65739357 13.7397104 11 14 C11 14.33 11 14.66 11 15 C6.38 15 1.76 15 -3 15 C-2.67 13.68 -2.34 12.36 -2 11 C-1.6337001 9.08561511 -1.28013598 7.16876151 -0.9375 5.25 C-0.67259766 3.77273438 -0.67259766 3.77273438 -0.40234375 2.265625 C-0.26957031 1.51796875 -0.13679687 0.7703125 0 0 Z " fill="#FDB9AE" transform="translate(205,310)"/>
<path d="M0 0 C0.66 0.33 1.32 0.66 2 1 C1.649375 2.175625 1.29875 3.35125 0.9375 4.5625 C-0.25089374 9.32450327 -0.23535387 13.60196014 2.0625 18.0625 C3.3589057 20.74173845 3.13326354 23.06820212 3 26 C-1.20892459 19.68661311 -2.63502683 12.49331663 -2 5 C-1 2 -1 2 0 0 Z " fill="#A5D3A3" transform="translate(4,70)"/>
<path d="M0 0 C2.125 0.375 2.125 0.375 4 1 C3.01 1 2.02 1 1 1 C1 4.63 1 8.26 1 12 C1.99 12.33 2.98 12.66 4 13 C4 13.66 4 14.32 4 15 C-0.875 14.125 -0.875 14.125 -2 13 C-2.12487758 11.19072719 -2.17570846 9.37603893 -2.1875 7.5625 C-2.20167969 6.57378906 -2.21585938 5.58507812 -2.23046875 4.56640625 C-2 2 -2 2 0 0 Z " fill="#4F4F45" transform="translate(138,308)"/>
<path d="M0 0 C1.32 0.33 2.64 0.66 4 1 C4.1953125 3.01822917 4.390625 5.03645833 4.5859375 7.0546875 C4.86374749 9.22668245 4.86374749 9.22668245 7 11 C6.625 13.125 6.625 13.125 6 15 C2.47086025 9.98627748 0.38528505 6.16456078 0 0 Z " fill="#D0AE9C" transform="translate(113,329)"/>
<path d="M0 0 C2.25 -0.375 2.25 -0.375 5 0 C7.3125 3 7.3125 3 9 6 C5.89448334 6 4.64738916 5.4606285 2 4 C0.35 5.32 -1.3 6.64 -3 8 C-2.37240135 5.07120629 -1.41377341 2.63904371 0 0 Z " fill="#4D4B46" transform="translate(172,266)"/>
<path d="M0 0 C2.44799863 2.44799863 3.02552278 4.47600116 4.125 7.75 C4.47820312 8.77609375 4.83140625 9.8021875 5.1953125 10.859375 C6.01083125 14.04227344 6.14685434 16.73004326 6 20 C5.34 19.67 4.68 19.34 4 19 C4 17.35 4 15.7 4 14 C3.34 14 2.68 14 2 14 C1.66179834 12.4176994 1.32964061 10.83410625 1 9.25 C0.814375 8.36828125 0.62875 7.4865625 0.4375 6.578125 C0 4 0 4 0 0 Z " fill="#A4D2A2" transform="translate(440,258)"/>
<path d="M0 0 C0.75 1.6875 0.75 1.6875 1 4 C-1.66532415 8.22009657 -5.71958549 12.35825926 -10 15 C-10.99 14.67 -11.98 14.34 -13 14 C-12.09507812 13.23816406 -12.09507812 13.23816406 -11.171875 12.4609375 C-6.69550368 8.6054822 -2.95211487 5.13411282 0 0 Z " fill="#666F4C" transform="translate(362,218)"/>
<path d="M0 0 C0.99 0 1.98 0 3 0 C3.33 2.64 3.66 5.28 4 8 C0 3.375 0 3.375 0 0 Z M-15 8 C-9.06 8 -3.12 8 3 8 C-1.49919565 10.24959782 -3.34439425 10.07922275 -8.25 9.625 C-9.51328125 9.51414063 -10.7765625 9.40328125 -12.078125 9.2890625 C-13.04234375 9.19367188 -14.0065625 9.09828125 -15 9 C-15 8.67 -15 8.34 -15 8 Z " fill="#49744D" transform="translate(225,214)"/>
<path d="M0 0 C2.125 0.375 2.125 0.375 4 1 C4 3.64 4 6.28 4 9 C3.01 9.33 2.02 9.66 1 10 C0.01 7.36 -0.98 4.72 -2 2 C-1.34 1.34 -0.68 0.68 0 0 Z " fill="#3D4443" transform="translate(344,181)"/>
<path d="M0 0 C3.575739 3.07232233 4.75413014 5.49509637 5.8125 10.0625 C6.06644531 11.10535156 6.32039063 12.14820313 6.58203125 13.22265625 C7 16 7 16 6 19 C3.29928888 12.72019113 1.29975324 6.71539173 0 0 Z " fill="#A7D4A7" transform="translate(23,144)"/>
<path d="M0 0 C1.98541731 2.97812597 2.98825276 5.49843969 4.125 8.875 C4.47820312 9.90367187 4.83140625 10.93234375 5.1953125 11.9921875 C5.95376887 14.82719431 6.16126892 17.08640824 6 20 C0.77410453 14.77410453 0.41612482 7.00237633 0 0 Z " fill="#A5D0A2" transform="translate(479,374)"/>
<path d="M0 0 C-1.66220581 1.00739746 -3.33020674 2.00522955 -5 3 C-5.86625 3.556875 -5.86625 3.556875 -6.75 4.125 C-11.46959046 7.05440098 -11.46959046 7.05440098 -14.4375 6.75 C-14.953125 6.5025 -15.46875 6.255 -16 6 C-4.57142857 -2.28571429 -4.57142857 -2.28571429 0 0 Z " fill="#34453A" transform="translate(154,247)"/>
<path d="M0 0 C-1.90401138 1.90401138 -3.33425686 2.93520439 -6.046875 3.19921875 C-8.03233273 3.1886578 -10.0169914 3.09915043 -12 3 C-12.33 2.34 -12.66 1.68 -13 1 C-11.68 1 -10.36 1 -9 1 C-9 0.34 -9 -0.32 -9 -1 C-5.79937313 -2.60031344 -3.27728194 -1.03173691 0 0 Z " fill="#58544F" transform="translate(317,200)"/>
<path d="M0 0 C1.32 0 2.64 0 4 0 C4 0.66 4 1.32 4 2 C1.73291675 2.8655047 -0.53775079 3.71759315 -2.8125 4.5625 C-3.45509766 4.80935547 -4.09769531 5.05621094 -4.75976562 5.31054688 C-9.66015625 7.11328125 -9.66015625 7.11328125 -13 6 C-10.28505068 3.28505068 -7.78527931 3.23368715 -4.09375 2.5625 C-1.8002393 2.1331915 -1.8002393 2.1331915 0 0 Z " fill="#596C52" transform="translate(229,440)"/>
<path d="M0 0 C1.32 0.66 2.64 1.32 4 2 C3.01 2.66 2.02 3.32 1 4 C1 4.66 1 5.32 1 6 C4.96 6.33 8.92 6.66 13 7 C13 7.33 13 7.66 13 8 C8.38 8 3.76 8 -1 8 C-1.33 6.02 -1.66 4.04 -2 2 C-1.34 1.34 -0.68 0.68 0 0 Z " fill="#EF918A" transform="translate(203,325)"/>
<path d="M0 0 C4.41419289 5.2685528 5.12525805 8.34687284 5.0625 15.1875 C5.05347656 16.45980469 5.04445313 17.73210937 5.03515625 19.04296875 C5.02355469 20.01878906 5.01195312 20.99460937 5 22 C4.67 22 4.34 22 4 22 C3.90912109 20.71802734 3.90912109 20.71802734 3.81640625 19.41015625 C3.73261719 18.30542969 3.64882813 17.20070313 3.5625 16.0625 C3.48128906 14.96035156 3.40007812 13.85820312 3.31640625 12.72265625 C3.29581916 10.08890097 3.29581916 10.08890097 2 9 C1.95936168 7.33382885 1.957279 5.66611905 2 4 C1.34 4 0.68 4 0 4 C0 2.68 0 1.36 0 0 Z " fill="#D7BF3F" transform="translate(369,274)"/>
<path d="M0 0 C-2.08304538 0.05418326 -4.16649768 0.09287551 -6.25 0.125 C-7.99023438 0.15980469 -7.99023438 0.15980469 -9.765625 0.1953125 C-12.82786046 0.0103949 -14.44202751 -0.39176977 -17 -2 C-11.07310892 -3.66693812 -5.40562349 -2.94961638 0 0 Z " fill="#CFAE92" transform="translate(174,375)"/>
<path d="M0 0 C0.53625 0.226875 1.0725 0.45375 1.625 0.6875 C0.965 1.3475 0.305 2.0075 -0.375 2.6875 C-1.695 2.6875 -3.015 2.6875 -4.375 2.6875 C-4.705 3.6775 -5.035 4.6675 -5.375 5.6875 C-7.355 5.6875 -9.335 5.6875 -11.375 5.6875 C-8.45877964 2.28524292 -4.62034368 -0.60793996 0 0 Z " fill="#4D5145" transform="translate(208.375,367.3125)"/>
<path d="M0 0 C1.0326802 2.78823655 1.04509293 3.8677274 0.0625 6.75 C-0.288125 7.4925 -0.63875 8.235 -1 9 C-1.66 9 -2.32 9 -3 9 C-3 10.32 -3 11.64 -3 13 C-4.65 13.66 -6.3 14.32 -8 15 C-7.50628906 14.16855469 -7.01257813 13.33710938 -6.50390625 12.48046875 C-5.86324219 11.39378906 -5.22257813 10.30710937 -4.5625 9.1875 C-3.92441406 8.10855469 -3.28632813 7.02960938 -2.62890625 5.91796875 C-0.919233 3.06819358 -0.919233 3.06819358 0 0 Z " fill="#53504B" transform="translate(234,336)"/>
<path d="M0 0 C1.53760842 3.07521683 0.36599236 5.34675118 -0.4375 8.625 C-0.72496094 9.81351563 -1.01242188 11.00203125 -1.30859375 12.2265625 C-1.53675781 13.14179688 -1.76492187 14.05703125 -2 15 C-2.66 15 -3.32 15 -4 15 C-4.33 15.99 -4.66 16.98 -5 18 C-4.7834375 16.9790625 -4.7834375 16.9790625 -4.5625 15.9375 C-3.93054091 12.63726918 -3.45686059 9.32855574 -3 6 C-2.34 6 -1.68 6 -1 6 C-1.020625 5.195625 -1.04125 4.39125 -1.0625 3.5625 C-1 1 -1 1 0 0 Z " fill="#935942" transform="translate(253,122)"/>
<path d="M0 0 C0 0.99 0 1.98 0 3 C-1.98 3.33 -3.96 3.66 -6 4 C-6 3.34 -6 2.68 -6 2 C-7.32 2.99 -8.64 3.98 -10 5 C-9.875 3.125 -9.875 3.125 -9 1 C-5.3931275 -0.64661571 -3.8148779 -1.27162597 0 0 Z " fill="#5A6E52" transform="translate(272,50)"/>
<path d="M0 0 C1.4783226 2.95664519 1.06032783 5.74229737 1 9 C0.34 9 -0.32 9 -1 9 C-1 8.34 -1 7.68 -1 7 C-1.78375 7.515625 -2.5675 8.03125 -3.375 8.5625 C-4.24125 9.036875 -5.1075 9.51125 -6 10 C-6.66 9.67 -7.32 9.34 -8 9 C-6.8553125 7.88625 -6.8553125 7.88625 -5.6875 6.75 C-3.5606298 4.5736677 -1.7440044 2.47832204 0 0 Z " fill="#6C7735" transform="translate(371,340)"/>
<path d="M0 0 C0.66 0 1.32 0 2 0 C2 0.99 2 1.98 2 3 C3.65 3 5.3 3 7 3 C3.57653445 6.14958831 0.55737263 6.56179109 -4 7 C-3.67 6.34 -3.34 5.68 -3 5 C-1.68 5 -0.36 5 1 5 C0.67 3.35 0.34 1.7 0 0 Z " fill="#D8BB3D" transform="translate(356,346)"/>
<path d="M0 0 C0.66 0 1.32 0 2 0 C0 5 -2 10 -4 15 C-5.3480932 11.339671 -4.6336844 9.33449773 -3.125 5.8125 C-2.75632812 4.93207031 -2.38765625 4.05164063 -2.0078125 3.14453125 C-1 1 -1 1 0 0 Z " fill="#34463A" transform="translate(117,277)"/>
<path d="M0 0 C2.64752004 2.57784846 4.94432065 4.91648098 7 8 C5.35 8.33 3.7 8.66 2 9 C0 3.375 0 3.375 0 0 Z " fill="#4D4D47" transform="translate(123,350)"/>
<path d="M0 0 C2.97 0.495 2.97 0.495 6 1 C5.67 3.31 5.34 5.62 5 8 C4.34 7.67 3.68 7.34 3 7 C2.375 4.9375 2.375 4.9375 2 3 C1.01 3.495 1.01 3.495 0 4 C0 2.68 0 1.36 0 0 Z " fill="#EDC33B" transform="translate(306,322)"/>
<path d="M0 0 C0.66 0.99 1.32 1.98 2 3 C-0.65228812 4.07525194 -3.28368454 5.09456151 -6 6 C-6.33 6.99 -6.66 7.98 -7 9 C-8.32 8.67 -9.64 8.34 -11 8 C-7.37 5.36 -3.74 2.72 0 0 Z " fill="#E2BEAD" transform="translate(160,282)"/>
<path d="M0 0 C-4.65285818 3.10190545 -9.41532676 4.33846504 -15 4 C-12.83900627 1.83900627 -11.4789582 1.28436284 -8.625 0.3125 C-7.46871094 -0.09548828 -7.46871094 -0.09548828 -6.2890625 -0.51171875 C-3.79944692 -1.04278009 -2.38446982 -0.81115526 0 0 Z " fill="#596E54" transform="translate(261,54)"/>
<path d="M0 0 C4.26947129 0.50229074 8.16836808 0.97148898 12 3 C12.33 3.99 12.66 4.98 13 6 C3.40546697 3.10933941 3.40546697 3.10933941 0 0 Z " fill="#C9A997" transform="translate(143,367)"/>
<path d="M0 0 C0.66 0.66 1.32 1.32 2 2 C3.31747324 2.69748583 4.64914193 3.36959957 6 4 C1.25 7 1.25 7 -1 7 C-1.625 4.625 -1.625 4.625 -2 2 C-1.34 1.34 -0.68 0.68 0 0 Z " fill="#484B46" transform="translate(138,290)"/>
<path d="M0 0 C0 1.98 0 3.96 0 6 C-0.33 5.34 -0.66 4.68 -1 4 C-3.02463255 3.34786708 -3.02463255 3.34786708 -5 3 C-2.25 0 -2.25 0 0 0 Z M-7 4 C-6.34 4.33 -5.68 4.66 -5 5 C-5.99 5.99 -6.98 6.98 -8 8 C-8.66 7.67 -9.32 7.34 -10 7 C-9.01 6.01 -8.02 5.02 -7 4 Z " fill="#E4A68E" transform="translate(258,166)"/>
<path d="M0 0 C1.90318884 2.85478326 2.4619099 4.41941308 3.125 7.6875 C3.29257812 8.49574219 3.46015625 9.30398438 3.6328125 10.13671875 C3.75398438 10.75160156 3.87515625 11.36648438 4 12 C3.01 11.67 2.02 11.34 1 11 C0.67 7.37 0.34 3.74 0 0 Z " fill="#A5D0A4" transform="translate(475,362)"/>
<path d="M0 0 C0.33 0 0.66 0 1 0 C1.02578125 0.68707031 1.0515625 1.37414062 1.078125 2.08203125 C1.13484375 2.98308594 1.1915625 3.88414062 1.25 4.8125 C1.29640625 5.70582031 1.3428125 6.59914063 1.390625 7.51953125 C1.79121416 10.16053515 1.79121416 10.16053515 4.046875 11.82421875 C4.69140625 12.21222656 5.3359375 12.60023438 6 13 C3.69 13 1.38 13 -1 13 C-0.67 8.71 -0.34 4.42 0 0 Z " fill="#E4BAAE" transform="translate(135,311)"/>
<path d="M0 0 C0.33 0 0.66 0 1 0 C1.06058594 0.77085937 1.12117187 1.54171875 1.18359375 2.3359375 C1.26738281 3.33882813 1.35117188 4.34171875 1.4375 5.375 C1.55931641 6.87160156 1.55931641 6.87160156 1.68359375 8.3984375 C1.84965626 10.97927613 1.84965626 10.97927613 3 13 C1.68 13 0.36 13 -1 13 C-0.67 8.71 -0.34 4.42 0 0 Z " fill="#DAB5A5" transform="translate(205,310)"/>
<path d="M0 0 C0 0.99 0 1.98 0 3 C-5.45769231 6.10096154 -5.45769231 6.10096154 -8.203125 5.58984375 C-8.79609375 5.39519531 -9.3890625 5.20054687 -10 5 C-8.71186658 4.16121545 -7.41936744 3.32913217 -6.125 2.5 C-5.40570313 2.0359375 -4.68640625 1.571875 -3.9453125 1.09375 C-2 0 -2 0 0 0 Z " fill="#E0BCAA" transform="translate(149,291)"/>
<path d="M0 0 C3.77727089 1.81309003 7.37269822 3.9073259 11 6 C8 7 8 7 4.9375 5.8125 C2.0126988 4.00783543 1.09351553 3.17119503 0 0 Z " fill="#E3BEAE" transform="translate(198,289)"/>
<path d="M0 0 C0.33 1.32 0.66 2.64 1 4 C-1.97 6.475 -1.97 6.475 -5 9 C-4.42647107 5.12867972 -2.51295648 2.91827204 0 0 Z " fill="#324137" transform="translate(127,263)"/>
<path d="M0 0 C0.66 0.33 1.32 0.66 2 1 C1.67 2.98 1.34 4.96 1 7 C1.66 7.33 2.32 7.66 3 8 C2.01 8 1.02 8 0 8 C-0.66 7.34 -1.32 6.68 -2 6 C-1.44444444 1.44444444 -1.44444444 1.44444444 0 0 Z " fill="#5F534C" transform="translate(301,192)"/>
<path d="M0 0 C1.32 0.66 2.64 1.32 4 2 C3.67 3.32 3.34 4.64 3 6 C1.68 5.67 0.36 5.34 -1 5 C-0.67 3.35 -0.34 1.7 0 0 Z " fill="#3A494B" transform="translate(273,181)"/>
<path d="M0 0 C1.32 0.66 2.64 1.32 4 2 C1.4345406 4.5654594 -0.47686668 4.54046087 -4 5 C-2.68 3.35 -1.36 1.7 0 0 Z " fill="#E2BFAE" transform="translate(174,269)"/>
<path d="M0 0 C2.32472205 2.85306797 3.7508258 5.54074837 5 9 C3.68 8.67 2.36 8.34 1 8 C0.67 5.36 0.34 2.72 0 0 Z " fill="#5FAB80" transform="translate(218,204)"/>
<path d="M0 0 C0.33 0 0.66 0 1 0 C1 3.3 1 6.6 1 10 C-1.6666419 11.33332095 -3.16680303 10.67102033 -6 10 C-5.01 9.01 -4.02 8.02 -3 7 C-2.01 7.66 -1.02 8.32 0 9 C0 6.03 0 3.06 0 0 Z " fill="#6A645F" transform="translate(278,181)"/>
<path d="M0 0 C0.99 0.33 1.98 0.66 3 1 C2.01 2.485 2.01 2.485 1 4 C1 5.32 1 6.64 1 8 C0.01 7.67 -0.98 7.34 -2 7 C-2.125 4.625 -2.125 4.625 -2 2 C-1.34 1.34 -0.68 0.68 0 0 Z " fill="#667336" transform="translate(257,347)"/>
<path d="M0 0 C0.33 0 0.66 0 1 0 C0.67 3.3 0.34 6.6 0 10 C-0.99 10.33 -1.98 10.66 -3 11 C-2.01 7.37 -1.02 3.74 0 0 Z " fill="#5E5951" transform="translate(238,325)"/>
<path d="M0 0 C2.475 0.495 2.475 0.495 5 1 C5 1.66 5 2.32 5 3 C6.32 3.66 7.64 4.32 9 5 C9 5.99 9 6.98 9 8 C7.49712782 6.85793642 5.99776716 5.71125043 4.5 4.5625 C3.6646875 3.92441406 2.829375 3.28632813 1.96875 2.62890625 C1.3190625 2.09136719 0.669375 1.55382812 0 1 C0 0.67 0 0.34 0 0 Z " fill="#6E7133" transform="translate(360,266)"/>
<path d="M0 0 C1.32 0.33 2.64 0.66 4 1 C4 3.31 4 5.62 4 8 C2.68 8.33 1.36 8.66 0 9 C0.185625 7.88625 0.37125 6.7725 0.5625 5.625 C1.31680657 2.17431139 1.31680657 2.17431139 0 0 Z " fill="#70B698" transform="translate(171,191)"/>
<path d="M0 0 C0.33 0 0.66 0 1 0 C1 2.97 1 5.94 1 9 C-0.32 8.67 -1.64 8.34 -3 8 C-3.99 8.495 -3.99 8.495 -5 9 C-4.67 8.01 -4.34 7.02 -4 6 C-3.01 5.67 -2.02 5.34 -1 5 C-0.67 3.35 -0.34 1.7 0 0 Z " fill="#3C423E" transform="translate(277,181)"/>
<path d="M0 0 C0 0.99 0 1.98 0 3 C-0.99 3.33 -1.98 3.66 -3 4 C-3.33 4.66 -3.66 5.32 -4 6 C-6.475 5.01 -6.475 5.01 -9 4 C-6.01353231 2.00902154 -3.40312738 1.05875074 0 0 Z " fill="#5A6C53" transform="translate(299,39)"/>
<path d="M0 0 C-0.969375 0.45375 -1.93875 0.9075 -2.9375 1.375 C-6.07079582 2.65786221 -6.07079582 2.65786221 -7 5 C-9.475 4.01 -9.475 4.01 -12 3 C-7.97869817 0.31913211 -4.73968522 -1.57989507 0 0 Z " fill="#5A6D53" transform="translate(326,32)"/>
<path d="M0 0 C0.66 0.99 1.32 1.98 2 3 C1.34 3 0.68 3 0 3 C-0.0825 3.5775 -0.165 4.155 -0.25 4.75 C-1.20531013 7.6159304 -2.78469173 8.9990764 -5 11 C-3.77472971 6.94718288 -2.30119506 3.55639236 0 0 Z " fill="#D8BD42" transform="translate(265,337)"/>
<path d="M0 0 C1.45880109 0.14107747 2.91703551 0.28802415 4.375 0.4375 C5.59316406 0.55931641 5.59316406 0.55931641 6.8359375 0.68359375 C9 1 9 1 11 2 C11 2.66 11 3.32 11 4 C7.0507432 3.44894091 3.65079826 2.61064629 0 1 C0 0.67 0 0.34 0 0 Z " fill="#5E5750" transform="translate(216,299)"/>
<path d="M0 0 C4 0 4 0 6.25 2 C6.8275 2.66 7.405 3.32 8 4 C7.67 4.99 7.34 5.98 7 7 C5.83040013 6.02433888 4.66438823 5.044375 3.5 4.0625 C2.8503125 3.51722656 2.200625 2.97195313 1.53125 2.41015625 C1.0259375 1.94480469 0.520625 1.47945313 0 1 C0 0.67 0 0.34 0 0 Z " fill="#544C47" transform="translate(188,280)"/>
<path d="M0 0 C0.33 0 0.66 0 1 0 C1 3.63 1 7.26 1 11 C0.01 11.33 -0.98 11.66 -2 12 C-1.34 8.04 -0.68 4.08 0 0 Z " fill="#737753" transform="translate(374,187)"/>
<path d="M0 0 C0.66 1.32 1.32 2.64 2 4 C1 5 1 5 -1.5625 5.0625 C-2.7690625 5.0315625 -2.7690625 5.0315625 -4 5 C-4.33 4.34 -4.66 3.68 -5 3 C-3.35 2.01 -1.7 1.02 0 0 Z " fill="#4E4E49" transform="translate(346,188)"/>
<path d="M0 0 C1.67542976 0.28604898 3.34385343 0.61781233 5 1 C5 1.99 5 2.98 5 4 C3.35 4.33 1.7 4.66 0 5 C-0.5625 3.0625 -0.5625 3.0625 -1 1 C-0.67 0.67 -0.34 0.34 0 0 Z " fill="#665953" transform="translate(342,178)"/>
<path d="M0 0 C1.13643966 3.40931897 0.86747764 4.00335456 -0.4375 7.1875 C-0.72496094 7.90292969 -1.01242188 8.61835938 -1.30859375 9.35546875 C-1.53675781 9.89816406 -1.76492187 10.44085938 -2 11 C-3.1875 9.375 -3.1875 9.375 -4 7 C-1.9 1.9 -1.9 1.9 0 0 Z " fill="#467550" transform="translate(112,143)"/>
<path d="M0 0 C-3.29549466 1.72264494 -6.33118845 3.29445932 -10 4 C-9.67 3.01 -9.34 2.02 -9 1 C-3.79245283 -1.26415094 -3.79245283 -1.26415094 0 0 Z " fill="#586C53" transform="translate(344,26)"/>
<path d="M0 0 C0.66 0 1.32 0 2 0 C0.7508258 3.45925163 -0.67527795 6.14693203 -3 9 C-2.67 6.69 -2.34 4.38 -2 2 C-1.34 2 -0.68 2 0 2 C0 1.34 0 0.68 0 0 Z " fill="#6B7433" transform="translate(263,337)"/>
<path d="M0 0 C0.185625 0.9590625 0.185625 0.9590625 0.375 1.9375 C0.684375 2.9584375 0.684375 2.9584375 1 4 C1.66 4.33 2.32 4.66 3 5 C2.34 5 1.68 5 1 5 C1 5.66 1 6.32 1 7 C-0.32 6.67 -1.64 6.34 -3 6 C-2.01 4.02 -1.02 2.04 0 0 Z " fill="#39474B" transform="translate(179,323)"/>
<path d="M0 0 C0.66 0.33 1.32 0.66 2 1 C2.73075648 3.3140622 3.40138258 5.64828869 4 8 C2.35 8 0.7 8 -1 8 C-0.835 7.05125 -0.67 6.1025 -0.5 5.125 C0.0526635 2.19831099 0.0526635 2.19831099 0 0 Z " fill="#60A87C" transform="translate(223,213)"/>
<path d="M0 0 C0.99 0 1.98 0 3 0 C2.67 1.65 2.34 3.3 2 5 C1.01 5 0.02 5 -1 5 C-1.33 4.01 -1.66 3.02 -2 2 C-1.34 1.34 -0.68 0.68 0 0 Z " fill="#37474D" transform="translate(344,181)"/>
<path d="M0 0 C0.66 0.33 1.32 0.66 2 1 C0.12050295 4.57104439 -1.17053157 6.54744301 -5 8 C-3.8141763 4.62496331 -2.72426311 2.35277269 0 0 Z " fill="#5DA47A" transform="translate(118,138)"/>
<path d="M0 0 C1.32 0 2.64 0 4 0 C4 1.32 4 2.64 4 4 C3.34 4.66 2.68 5.32 2 6 C1.01 4.68 0.02 3.36 -1 2 C-0.67 1.34 -0.34 0.68 0 0 Z " fill="#D3AD95" transform="translate(131,355)"/>
<path d="M0 0 C2.34058637 2.12780579 3.70700306 4.11562221 5 7 C4.01 7 3.02 7 2 7 C0 4 0 4 0 0 Z " fill="#54504A" transform="translate(118,343)"/>
<path d="M0 0 C0.99 0.33 1.98 0.66 3 1 C3.33 2.98 3.66 4.96 4 7 C2.68 7.33 1.36 7.66 0 8 C0.185625 7.05125 0.37125 6.1025 0.5625 5.125 C1.28686632 2.10131207 1.28686632 2.10131207 0 0 Z " fill="#E6C948" transform="translate(352,305)"/>
<path d="M0 0 C0.66 0.66 1.32 1.32 2 2 C-1.4352048 4.29013653 -2.985331 4.17842973 -7 4 C-4.61426621 2.10786631 -2.92824652 0.97608217 0 0 Z " fill="#567D50" transform="translate(109,103)"/>
</svg>
